<?xml version="1.0" encoding="UTF-8"?>
<svg version="1.1" xmlns="http://www.w3.org/2000/svg" width="2160" height="2160">
<path d="M0 0 C0.69832066 0.00026688 1.39664131 0.00053375 2.1161232 0.00080872 C26.14471821 0.01229239 50.09086315 0.4246728 74.0625 2.1875 C74.9302002 2.25066406 75.79790039 2.31382813 76.69189453 2.37890625 C165.11447472 8.88736967 251.99304339 25.92093283 449.0625 97.1875 C450.1954248 97.70957031 451.32834961 98.23164062 452.49560547 98.76953125 C474.76074502 109.03679728 496.71169846 119.69205638 518.16455078 131.58251953 C521.11516448 133.21666734 524.07122417 134.84068131 527.02734375 136.46484375 C548.87316911 148.52510591 570.26271405 161.39716573 591.0625 175.1875 C592.14700439 175.90365479 592.14700439 175.90365479 593.25341797 176.63427734 C615.77699656 191.51618658 637.80834529 206.9229851 659.04052734 223.60644531 C661.9042756 225.84571526 664.79603082 228.04663631 667.6875 230.25 C678.42732501 238.50412966 688.88963256 247.09389454 699.13134766 255.95751953 C702.49012229 258.86041258 705.8995622 261.67389886 709.375 264.4375 C715.14767824 269.11388327 720.50309169 274.21224552 725.87426758 279.34082031 C729.92909633 283.209105 734.05760776 286.95418881 738.29223633 290.62451172 C741.20884156 293.19961953 743.88648325 295.99068273 746.59375 298.78125 C748.5769919 300.71428324 750.58446373 302.51521726 752.68359375 304.31640625 C757.90187335 308.84637397 762.75123253 313.73035987 767.625 318.625 C768.53185547 319.52798828 769.43871094 320.43097656 770.37304688 321.36132812 C774.93773431 325.93263585 779.35167693 330.56257462 783.55834961 335.46508789 C785.61649382 337.82188182 787.82142244 340.00539816 790.0625 342.1875 C793.59004647 345.6779144 796.93634474 349.23394314 800.16015625 353.00390625 C802.06930724 355.19531365 804.03241316 357.33061728 806.00952148 359.46069336 C810.75001554 364.57076603 815.25942363 369.79484466 819.6328125 375.2265625 C822.45892468 378.67060274 825.37972784 382.0218985 828.3125 385.375 C839.29981248 397.99184105 849.57189743 411.06502864 859.5546875 424.48828125 C862.45128117 428.38130938 865.39626492 432.23218588 868.375 436.0625 C920.83087839 504.01277151 963.68210293 581.50795706 1078.75 1004.5 C1078.84140762 1005.71538452 1078.84140762 1005.71538452 1078.93466187 1006.95532227 C1080.72052349 1031.01913946 1081.26840697 1055.06172827 1081.25 1079.1875 C1081.24982061 1080.19527622 1081.24982061 1080.19527622 1081.2496376 1081.22341156 C1081.24432457 1104.92647583 1080.713487 1128.53800295 1079.0625 1152.1875 C1079.01158203 1152.93533752 1078.96066406 1153.68317505 1078.90820312 1154.45367432 C1072.84028302 1243.31942043 1055.41800243 1330.82440723 947.0625 1602.1875 C946.24966553 1603.66621582 946.24966553 1603.66621582 945.42041016 1605.17480469 C933.18918761 1627.35118053 920.05734377 1649.07925497 906.0625 1670.1875 C905.34634521 1671.27200439 905.34634521 1671.27200439 904.61572266 1672.37841797 C889.73381342 1694.90199656 874.3270149 1716.93334529 857.64355469 1738.16552734 C855.40428474 1741.0292756 853.20336369 1743.92103082 851 1746.8125 C842.74587034 1757.55232501 834.15610546 1768.01463256 825.29248047 1778.25634766 C822.38958742 1781.61512229 819.57610114 1785.0245622 816.8125 1788.5 C811.51303585 1795.0372952 805.67008049 1801.06033947 799.875 1807.15625 C796.88134031 1810.3080874 793.95036066 1813.50115675 791.0625 1816.75 C787.89404821 1820.30999051 784.60989984 1823.69956327 781.1796875 1827.0078125 C779.34224132 1828.89950063 777.6288373 1830.8338372 775.91015625 1832.83203125 C771.69233276 1837.68477178 767.18056404 1842.21614636 762.625 1846.75 C761.41360352 1847.96719727 761.41360352 1847.96719727 760.17773438 1849.20898438 C755.85511196 1853.52464044 751.45071957 1857.66561383 746.82006836 1861.64819336 C744.45377697 1863.72062942 742.25622075 1865.9344895 740.0625 1868.1875 C736.59341869 1871.69343042 733.05970673 1875.01549263 729.3125 1878.21875 C726.97375281 1880.26515379 724.70209486 1882.37127784 722.43139648 1884.49243164 C717.10132973 1889.4695856 711.67697638 1894.22390103 705.98828125 1898.79296875 C702.55320823 1901.60431689 699.21557794 1904.51519502 695.875 1907.4375 C683.25826955 1918.42492288 670.1849567 1928.69690833 656.76171875 1938.6796875 C652.86869062 1941.57628117 649.01781412 1944.52126492 645.1875 1947.5 C577.23722849 1999.95587839 499.74204294 2042.80710293 77.3125 2157.875 C76.47655304 2157.93593842 75.64060608 2157.99687683 74.77932739 2158.05966187 C50.55033807 2159.80085183 26.35099518 2160.39520175 2.0625 2160.375 C1.0525145 2160.37459969 1.0525145 2160.37459969 0.02212524 2160.37419128 C-23.67989548 2160.36245605 -47.2917238 2159.89480904 -70.9375 2158.1875 C-71.82429443 2158.12433594 -72.71108887 2158.06117188 -73.62475586 2157.99609375 C-162.38292251 2151.61657609 -249.66621437 2134.52937326 -516.03955078 2028.79248047 C-518.99016448 2027.15833266 -521.94622417 2025.53431869 -524.90234375 2023.91015625 C-546.74816911 2011.84989409 -568.13771405 1998.97783427 -588.9375 1985.1875 C-589.66050293 1984.71006348 -590.38350586 1984.23262695 -591.12841797 1983.74072266 C-612.56835757 1969.57480164 -633.65119557 1954.97148686 -653.9375 1939.1875 C-655.50794428 1937.99003624 -657.07839707 1936.79258313 -658.6496582 1935.59619141 C-666.2689088 1929.78208134 -673.7019196 1923.7468472 -681.1171875 1917.67578125 C-682.71011865 1916.37340621 -684.3077952 1915.07683968 -685.90625 1913.78125 C-696.36765197 1905.2890531 -706.57008091 1896.51739309 -716.5 1887.41015625 C-718.58022725 1885.51328236 -720.68306898 1883.65357057 -722.8125 1881.8125 C-730.52603171 1875.1009322 -738.07930726 1868.17002544 -745.23095703 1860.86157227 C-746.91105407 1859.21344273 -748.65119023 1857.6944209 -750.4453125 1856.171875 C-755.35977031 1851.89473718 -759.96159709 1847.31407172 -764.5559082 1842.69946289 C-765.99775221 1841.25225615 -767.44487116 1839.81047974 -768.89257812 1838.36914062 C-773.59345109 1833.67128626 -778.15647889 1828.9082685 -782.48217773 1823.86108398 C-784.36607311 1821.6946517 -786.3775201 1819.68598796 -788.4375 1817.6875 C-791.78683729 1814.37763302 -794.93675956 1810.98003051 -798 1807.40625 C-799.92352777 1805.20350045 -801.89855114 1803.054363 -803.88769531 1800.91088867 C-808.72136425 1795.70036584 -813.30805432 1790.36456812 -817.765625 1784.82421875 C-819.87506349 1782.26329972 -822.06637648 1779.81626545 -824.3125 1777.375 C-828.29258466 1773.00241564 -831.95097497 1768.44580709 -835.57202148 1763.77758789 C-838.57278782 1759.91192218 -841.62711153 1756.09842864 -844.73144531 1752.31542969 C-855.88614412 1738.72167612 -866.20656934 1724.53971379 -876.45166016 1710.25390625 C-877.76699712 1708.42462395 -879.09022585 1706.60153393 -880.41796875 1704.78125 C-934.67259077 1629.89714859 -978.27232176 1546.09257041 -1028.32342529 1408.09356689 C-1028.88892202 1406.33828439 -1029.46006613 1404.58482395 -1030.03173828 1402.83154297 C-1057.93814818 1317.02103001 -1073.36501694 1226.22413242 -1077.9375 1136.1875 C-1077.97986786 1135.38015411 -1078.02223572 1134.57280823 -1078.06588745 1133.74099731 C-1078.96275803 1116.24532804 -1079.14007829 1098.76585601 -1079.125 1081.25 C-1079.12473312 1080.55167934 -1079.12446625 1079.85335869 -1079.12419128 1079.1338768 C-1079.11270761 1055.10528179 -1078.7003272 1031.15913685 -1076.9375 1007.1875 C-1076.87433594 1006.3197998 -1076.81117187 1005.45209961 -1076.74609375 1004.55810547 C-1070.33219244 917.4202257 -1053.902884 831.37298068 -990.9375 652.1875 C-990.53756836 651.26984863 -990.13763672 650.35219727 -989.72558594 649.40673828 C-987.19534319 643.63622432 -984.58180207 637.90650224 -981.9375 632.1875 C-981.41542969 631.0545752 -980.89335938 629.92165039 -980.35546875 628.75439453 C-969.62096586 605.47602577 -958.37555466 582.61108774 -945.9375 560.1875 C-945.37482422 559.16930176 -944.81214844 558.15110352 -944.23242188 557.10205078 C-936.41072688 542.9596397 -928.4106311 528.95059744 -919.9375 515.1875 C-919.24720703 514.06529053 -919.24720703 514.06529053 -918.54296875 512.92041016 C-906.18610661 492.91882733 -893.10935774 473.27989092 -879.37939453 454.19433594 C-877.8488578 452.06412735 -876.32856118 449.92682314 -874.80859375 447.7890625 C-867.64730636 437.75373054 -860.21134448 427.96340901 -852.58349609 418.27880859 C-851.02619722 416.30019362 -849.47485583 414.31708832 -847.92578125 412.33203125 C-839.97029104 402.14747309 -831.81616373 392.15491936 -823.37036133 382.37231445 C-820.40254278 378.92716432 -817.51803821 375.43477993 -814.6875 371.875 C-810.01111673 366.10232176 -804.91275448 360.74690831 -799.78417969 355.37573242 C-795.9059092 351.31043631 -792.14907911 347.17212352 -788.46923828 342.92651367 C-786.14939242 340.29274541 -783.64795167 337.87345334 -781.125 335.4375 C-779.31838657 333.57926904 -777.64600912 331.69140625 -775.96484375 329.72265625 C-771.28264127 324.33431826 -766.22205908 319.32234267 -761.16772461 314.28735352 C-759.50323723 312.6282268 -757.84416553 310.96381949 -756.18554688 309.29882812 C-751.12546015 304.23590593 -746.06169223 299.24456961 -740.58764648 294.62329102 C-738.78438076 293.05427109 -737.11074526 291.39379273 -735.4375 289.6875 C-732.49149785 286.69515625 -729.40766993 283.93425828 -726.2265625 281.1953125 C-724.00176861 279.24387213 -721.82579499 277.24566352 -719.65649414 275.23291016 C-714.44696406 270.40124333 -709.11295655 265.81564906 -703.57421875 261.359375 C-701.01329972 259.24993651 -698.56626545 257.05862352 -696.125 254.8125 C-691.75241564 250.83241534 -687.19580709 247.17402503 -682.52758789 243.55297852 C-677.97937857 240.02238006 -673.51330329 236.4023167 -669.0625 232.75 C-661.88315678 226.88400396 -654.53779766 221.27609203 -647.07958984 215.77050781 C-644.80523549 214.08975631 -642.53724156 212.40064059 -640.26953125 210.7109375 C-630.30845654 203.306397 -620.23519337 196.11555203 -609.9375 189.1875 C-609.03870117 188.58147949 -608.13990234 187.97545898 -607.21386719 187.35107422 C-531.1747476 136.14904335 -449.72140646 93.96492478 -326.84356689 50.80157471 C-325.08828439 50.23607798 -323.33482395 49.66493387 -321.58154297 49.09326172 C-235.77103001 21.18685182 -144.97413242 5.75998306 -54.9375 1.1875 C-54.13015411 1.14513214 -53.32280823 1.10276428 -52.49099731 1.05911255 C-34.99532804 0.16224197 -17.51585601 -0.01507829 0 0 Z " fill="#B48871" transform="translate(1078.9375,-0.1875)"/>
<path d="M0 0 C1.42169979 0.23412508 2.84341259 0.46817118 4.26513672 0.70214844 C22.74781192 3.77072107 41.00941573 7.52170284 59.1875 12.0625 C59.99837067 12.26401672 60.80924133 12.46553345 61.64468384 12.67315674 C96.7981768 21.46746845 131.05040181 33.99347493 164 49 C165.21695857 49.54776392 166.43424574 50.09479834 167.65185547 50.64111328 C183.49344578 57.75550743 198.93443282 65.35912902 214 74 C215.36415039 74.78093018 215.36415039 74.78093018 216.75585938 75.57763672 C258.22000557 99.4362051 297.03131962 127.75245123 332.0859375 160.33203125 C334.24976112 162.3131191 336.43395592 164.23273649 338.66015625 166.140625 C343.52024534 170.37825944 348.07121711 174.92075647 352.6184082 179.48803711 C354.06025221 180.93524385 355.50737116 182.37702026 356.95507812 183.81835938 C361.62202102 188.48195503 366.16570442 193.20353629 370.4597168 198.21459961 C372.8523552 200.98799708 375.36961228 203.64137969 377.875 206.3125 C383.17526696 212.01130196 388.13118805 217.92745964 393 224 C393.98613281 225.18335938 393.98613281 225.18335938 394.9921875 226.390625 C397.36170893 229.23405072 399.69007573 232.1081618 402 235 C402.52883789 235.66064453 403.05767578 236.32128906 403.60253906 237.00195312 C422.8071009 261.17117835 439.56889464 287.29117115 455 314 C455.43602539 314.74507812 455.87205078 315.49015625 456.32128906 316.2578125 C497.55789683 386.89245099 522.66828094 466.40231089 536.71704102 584.3046875 C536.89659068 586.64952244 537.08834009 588.99348068 537.29663086 591.3359375 C538.19253965 602.01435079 538.11194561 612.66862596 538.0625 623.375 C538.05747156 625.28645715 538.05291104 627.19791559 538.04882812 629.109375 C538.03793688 633.73961587 538.02074751 638.36979323 538 643 C531.19267043 637.416072 525.05476697 631.19136858 518.84498596 624.96524048 C517.60996732 623.73065827 516.37472881 622.49629598 515.13929027 621.26213396 C511.75518865 617.88026321 508.37420438 614.49529101 504.99372971 611.10979533 C501.34396119 607.45570229 497.69129691 603.80450588 494.03898621 600.1529541 C487.7148563 593.82934816 481.39255771 587.50391607 475.07150459 581.17723465 C465.93235577 572.02995359 456.79044195 562.88544002 447.6478542 553.74159627 C432.81414152 538.90569578 417.98266269 524.06756421 403.15258789 509.22802734 C388.74783608 494.8140944 374.34203278 480.40121369 359.93481445 465.98974609 C358.60238603 464.65692358 358.60238603 464.65692358 357.24303985 463.29717536 C352.78669827 458.83952873 348.33033601 454.38190277 343.87396348 449.92428708 C306.91276951 412.95272896 269.95520044 375.97754893 233 339 C233.95543764 340.283522 234.91220059 341.56605752 235.86952209 342.84817505 C236.40217713 343.56249254 236.93483217 344.27681004 237.48362827 345.01277351 C239.19661976 347.25767296 241.01894971 349.35475121 242.93359375 351.4296875 C283.98051448 396.98543962 312.95743214 458.89083115 327.28955078 518.10058594 C328.01890642 521.077159 328.78589559 524.04221893 329.55859375 527.0078125 C333.53764814 542.54154732 336.02209705 558.09676011 338 574 C338.11327637 574.87269531 338.22655273 575.74539063 338.34326172 576.64453125 C343.48903754 616.38000079 342.6316741 658.47714064 336 698 C335.82597656 699.04430176 335.65195313 700.08860352 335.47265625 701.16455078 C323.13130234 773.92534334 293.02384705 845.3111298 245.5 902.19921875 C244.89945801 902.92318848 244.29891602 903.6471582 243.68017578 904.39306641 C242.50048424 905.81080228 241.31168779 907.22102431 240.11279297 908.62255859 C239.31059326 909.58476318 239.31059326 909.58476318 238.4921875 910.56640625 C238.01120605 911.13302979 237.53022461 911.69965332 237.03466797 912.28344727 C235.65584514 914.23692104 235.65584514 914.23692104 236 918 C237.9570786 920.29541592 239.90244332 922.33442265 242.07104492 924.4140625 C243.03923157 925.36625923 243.03923157 925.36625923 244.02697754 926.33769226 C245.43215211 927.71757425 246.84179491 929.09291722 248.25530052 930.46426392 C250.49771627 932.6417481 252.72609898 934.83271171 254.95100403 937.02807617 C261.2800897 943.26853512 267.63219209 949.48527791 273.99731445 955.68896484 C277.88972641 959.48455723 281.7644886 963.29747104 285.62941933 967.12103271 C287.10060693 968.56936512 288.57845583 970.01096546 290.06322289 971.44537354 C299.30530675 980.37600019 307.33001078 988.14707042 308.59375 1001.609375 C308.59342653 1002.98993702 308.56253957 1004.37085519 308.5 1005.75 C308.47123779 1006.84538086 308.47123779 1006.84538086 308.44189453 1007.96289062 C308.04108414 1017.62567096 304.1716756 1025.47793987 297.55859375 1032.5390625 C288.50827253 1040.57831242 278.56292173 1041.71782975 266.94433594 1041.17480469 C252.52497571 1039.8784383 241.96610611 1025.10130275 232.4375 1015.53515625 C231.03667785 1014.13246609 229.63563257 1012.72999872 228.234375 1011.32774353 C224.56945113 1007.6590246 220.90754192 1003.98731122 217.24627686 1000.31494141 C213.50065494 996.55904022 209.75215587 992.80601289 206.00390625 989.05273438 C198.66647047 981.70461446 191.33221995 974.3533242 184 967 C181.01631023 968.76950561 178.20598228 970.52166362 175.5234375 972.72265625 C155.06110715 989.22113228 132.90856029 1003.17034663 110 1016 C108.89350098 1016.63059326 108.89350098 1016.63059326 107.76464844 1017.27392578 C85.52771179 1029.91503741 61.21020209 1038.94985873 37 1047 C35.82276367 1047.39316406 34.64552734 1047.78632812 33.43261719 1048.19140625 C12.93597475 1054.93643222 -7.7159292 1059.58573282 -29 1063 C-30.20882843 1063.19429596 -30.20882843 1063.19429596 -31.44207764 1063.39251709 C-68.80380049 1069.3098587 -107.39410254 1070.5627993 -145 1066 C-146.71364746 1065.80664062 -146.71364746 1065.80664062 -148.46191406 1065.609375 C-196.79418054 1060.10171498 -243.00264235 1046.67751951 -287 1026 C-287.95036133 1025.55575684 -288.90072266 1025.11151367 -289.87988281 1024.65380859 C-313.17862169 1013.66563075 -335.29682475 1000.31528605 -356 985 C-356.75490723 984.44183594 -357.50981445 983.88367187 -358.28759766 983.30859375 C-367.82793693 976.21148699 -376.98947614 968.75526467 -386 961 C-387.99409753 959.32608475 -389.99624629 957.66237345 -392 956 C-389.7946208 959.0323964 -387.46013926 961.53294969 -384.60383606 963.93186474 C-378.73975408 969.01352309 -373.31800994 974.54029651 -367.83862305 980.02766418 C-366.6151113 981.24930546 -365.39138412 982.47073099 -364.1674614 983.69196051 C-360.819824 987.03350361 -357.47529357 990.37814111 -354.13129306 993.72332323 C-350.51899887 997.335822 -346.9038421 1000.94545421 -343.28907776 1004.55548096 C-336.21597751 1011.62028915 -329.14564435 1018.68786026 -322.07640988 1025.75653646 C-316.334082 1031.49838887 -310.59096443 1037.23945021 -304.84729004 1042.97995567 C-288.56769586 1059.25075038 -272.29019279 1075.52363291 -256.01537299 1091.79920319 C-255.13873252 1092.67588362 -254.26209205 1093.55256405 -253.35888672 1094.45581055 C-252.48117937 1095.33355877 -251.60347203 1096.211307 -250.69916749 1097.11565366 C-236.44829632 1111.36693201 -222.19243344 1125.61320549 -207.93432057 1139.85723833 C-193.2988978 1154.47832208 -178.66718143 1169.10310579 -164.03935909 1183.73179358 C-155.82469094 1191.94679437 -147.60847516 1200.1602337 -139.38827515 1208.36969948 C-132.39632809 1215.35257447 -125.40780954 1222.33885786 -118.42380601 1229.32967804 C-114.85775641 1232.89900844 -111.2900783 1236.46667166 -107.71808052 1240.03005028 C-104.45366368 1243.28667052 -101.19382605 1246.54780018 -97.93770278 1249.81271216 C-96.75396781 1250.99799724 -95.56851163 1252.18156615 -94.38124311 1253.36331175 C-92.77779991 1254.95978415 -91.18053418 1256.56218303 -89.58477783 1258.1663332 C-88.24707273 1259.50371224 -88.24707273 1259.50371224 -86.88234329 1260.86810905 C-85 1263 -85 1263 -85 1265 C-123.16385195 1265.51885597 -161.11064142 1263.70447451 -198.80712891 1257.5234375 C-200.86855207 1257.18548894 -202.93068735 1256.85184295 -204.99365234 1256.5234375 C-219.09238118 1254.27715902 -232.90457395 1251.28005307 -246.74902344 1247.80322266 C-250.00593425 1246.99853382 -253.2702662 1246.23529177 -256.5390625 1245.48046875 C-331.31870935 1227.93325165 -405.02594516 1193.30431514 -466.71435547 1147.68408203 C-469.05137216 1145.96214857 -471.40105269 1144.25880998 -473.75390625 1142.55859375 C-483.82604558 1135.25358187 -493.55819144 1127.63597584 -503.07470703 1119.62109375 C-504.88700461 1118.09514195 -506.70607809 1116.57772697 -508.52734375 1115.0625 C-514.86295363 1109.7718435 -521.02576574 1104.32338159 -527.07421875 1098.70703125 C-528.91717122 1097.00186962 -530.77237704 1095.30976646 -532.64453125 1093.63671875 C-539.7591362 1087.25494865 -546.54772409 1080.56038561 -553.3125 1073.8125 C-553.78862732 1073.33896088 -554.26475464 1072.86542175 -554.75531006 1072.37753296 C-560.39668054 1066.7603561 -565.82437085 1061.04735062 -571 1055 C-572.45445517 1053.39231627 -573.91220895 1051.78760285 -575.375 1050.1875 C-579.21928245 1045.92254692 -582.89526905 1041.5513915 -586.50390625 1037.0859375 C-588.31198156 1034.85060183 -590.13112763 1032.62811795 -591.96484375 1030.4140625 C-604.69569154 1014.99622326 -616.20902268 998.86620861 -627.3125 982.25 C-627.776633 981.55697784 -628.24076599 980.86395569 -628.71896362 980.14993286 C-640.43398199 962.62733205 -650.82470535 944.45442164 -661 926 C-661.46051758 925.16984375 -661.92103516 924.3396875 -662.39550781 923.484375 C-675.8997859 899.03321097 -686.2428962 873.11992704 -696 847 C-696.42829102 845.86481934 -696.85658203 844.72963867 -697.29785156 843.56005859 C-702.05469964 830.91941785 -706.25205295 818.28726463 -709.61328125 805.203125 C-710.59727896 801.38871059 -711.73251781 797.64732607 -712.9296875 793.89453125 C-715.32920599 786.16795747 -717.11464597 778.34028863 -718.8125 770.4375 C-718.9816391 769.65320618 -719.1507782 768.86891235 -719.32504272 768.06085205 C-726.19068284 735.98383195 -730.84180045 703.72707293 -733 671 C-733.0928125 669.80568359 -733.185625 668.61136719 -733.28125 667.38085938 C-734.21570777 654.59881207 -734.24255794 641.81150632 -734.25 629 C-734.25100708 627.79257141 -734.25201416 626.58514282 -734.25305176 625.34112549 C-734.20200549 534.279094 -714.22489847 442.69691603 -668.41601562 346.87890625 C-667.22932076 344.46623282 -666.05583675 342.04808448 -664.890625 339.625 C-641.85080424 292.08078359 -610.54967147 247.32299094 -575.02734375 208.2421875 C-573.26032801 206.28791576 -571.53086471 204.30940263 -569.8125 202.3125 C-561.27459148 192.54372595 -552.28026505 183.18854592 -543.125 174 C-542.43615723 173.30656494 -541.74731445 172.61312988 -541.03759766 171.89868164 C-537.11398164 167.98686384 -533.08357894 164.26232838 -528.88867188 160.64355469 C-526.08893694 158.20717728 -523.39424791 155.66351022 -520.6875 153.125 C-514.98515128 147.82625534 -509.07285619 142.87101964 -503 138 C-501.80726658 137.0172335 -500.61594599 136.03275069 -499.42578125 135.046875 C-470.58075575 111.22663176 -439.25117234 90.4481981 -406.51123047 72.39599609 C-404.26530794 71.14748501 -402.03723162 69.8744921 -399.81640625 68.58203125 C-358.91459577 44.84243429 -312.64736921 27.07294213 -267 15 C-265.45119141 14.58669434 -265.45119141 14.58669434 -263.87109375 14.16503906 C-245.39237403 9.27265075 -226.80738643 5.36322691 -208 2 C-206.90059082 1.80277344 -205.80118164 1.60554688 -204.66845703 1.40234375 C-138.01859585 -10.36242113 -66.76631904 -11.21584017 0 0 Z " fill="#F6E6DC" transform="translate(1178,451)"/>
<path d="M0 0 C1.42169979 0.23412508 2.84341259 0.46817118 4.26513672 0.70214844 C22.74781192 3.77072107 41.00941573 7.52170284 59.1875 12.0625 C59.99837067 12.26401672 60.80924133 12.46553345 61.64468384 12.67315674 C96.7981768 21.46746845 131.05040181 33.99347493 164 49 C165.21695857 49.54776392 166.43424574 50.09479834 167.65185547 50.64111328 C183.49344578 57.75550743 198.93443282 65.35912902 214 74 C215.36415039 74.78093018 215.36415039 74.78093018 216.75585938 75.57763672 C258.22000557 99.4362051 297.03131962 127.75245123 332.0859375 160.33203125 C334.24976112 162.3131191 336.43395592 164.23273649 338.66015625 166.140625 C343.52024534 170.37825944 348.07121711 174.92075647 352.6184082 179.48803711 C354.06025221 180.93524385 355.50737116 182.37702026 356.95507812 183.81835938 C361.62202102 188.48195503 366.16570442 193.20353629 370.4597168 198.21459961 C372.8523552 200.98799708 375.36961228 203.64137969 377.875 206.3125 C383.17526696 212.01130196 388.13118805 217.92745964 393 224 C393.98613281 225.18335938 393.98613281 225.18335938 394.9921875 226.390625 C397.36170893 229.23405072 399.69007573 232.1081618 402 235 C402.52883789 235.66064453 403.05767578 236.32128906 403.60253906 237.00195312 C422.8071009 261.17117835 439.56889464 287.29117115 455 314 C455.43602539 314.74507812 455.87205078 315.49015625 456.32128906 316.2578125 C497.55789683 386.89245099 522.66828094 466.40231089 536.71704102 584.3046875 C536.89659068 586.64952244 537.08834009 588.99348068 537.29663086 591.3359375 C538.19253965 602.01435079 538.11194561 612.66862596 538.0625 623.375 C538.05747156 625.28645715 538.05291104 627.19791559 538.04882812 629.109375 C538.03793688 633.73961587 538.02074751 638.36979323 538 643 C531.19643226 637.42068244 525.06699288 631.19756741 518.86517334 624.9719696 C517.63229689 623.73809623 516.39919632 622.50444675 515.16589189 621.27100116 C511.78758628 617.8910543 508.41239932 614.50800823 505.03770685 611.12445438 C501.39405127 607.47235395 497.74746534 603.8231816 494.10119629 600.1736908 C487.78702625 593.85322839 481.47458135 587.53104732 475.16320038 581.20779991 C466.03577383 572.06339221 456.90463223 562.92270117 447.7723861 553.7831069 C432.95249684 538.95127717 418.13411306 524.11794451 403.31738281 509.28295898 C402.43092505 508.3954111 401.54446729 507.50786322 400.63114718 506.59341995 C388.03659256 493.98323749 375.44352428 481.37157173 362.85104349 468.75931839 C361.96337297 467.87025455 361.07570244 466.98119071 360.16113281 466.06518555 C359.2745434 465.17720261 358.387954 464.28921967 357.47449824 463.37432816 C342.70974506 448.58656804 327.94115569 433.80264608 313.16939378 419.02188712 C304.0546365 409.90126739 294.94316145 400.77739258 285.83583358 391.64935414 C279.60232801 385.40217589 273.36525406 379.15857556 267.12531397 372.91782441 C263.52140394 369.31320807 259.91918613 365.70694009 256.32128143 362.09632874 C253.03191033 358.79540114 249.73802481 355.49905135 246.44039014 352.20637963 C245.24431533 351.01045691 244.04995622 349.81281547 242.85743591 348.61334833 C241.24402875 346.99102468 239.62465858 345.3749037 238.00356674 343.7602644 C237.10324714 342.85864329 236.20292755 341.95702217 235.27532554 341.02807921 C233.08848783 338.80995494 233.08848783 338.80995494 230 338 C228.59673045 336.42184279 227.26416135 334.78023113 225.97265625 333.109375 C221.16394931 327.08949263 215.92450994 321.66151885 210.4375 316.25 C209.54353516 315.35667969 208.64957031 314.46335937 207.72851562 313.54296875 C202.6441753 308.4921025 197.44612028 303.65606701 192 299 C190.95166019 298.07457338 189.90471158 297.14756764 188.859375 296.21875 C179.00886788 287.56463518 168.59154056 279.72061542 158 272 C157.39833008 271.56059082 156.79666016 271.12118164 156.17675781 270.66845703 C136.1023856 256.11606259 114.25784488 243.76477264 91.96679688 232.95898438 C90.02747843 232.01339812 88.09967401 231.04693735 86.171875 230.078125 C73.19863262 223.65920711 59.63109373 218.82108618 46 214 C44.95295898 213.62810547 43.90591797 213.25621094 42.82714844 212.87304688 C28.08556503 207.6778998 13.2559752 203.3988458 -2 200 C-3.13163574 199.74476563 -4.26327148 199.48953125 -5.42919922 199.2265625 C-54.30415184 188.41452644 -106.09175693 186.13983793 -155.6875 193.0625 C-156.44758362 193.16782043 -157.20766724 193.27314087 -157.99078369 193.38165283 C-182.89678716 196.8806093 -207.78856663 201.82658726 -231.55664062 210.15869141 C-234.05171943 211.01780827 -236.55956195 211.81805704 -239.078125 212.60546875 C-253.44888504 217.140381 -267.23189727 222.8937382 -281 229 C-281.86898926 229.38414062 -282.73797852 229.76828125 -283.63330078 230.1640625 C-323.58532589 247.99534965 -360.34696855 273.45818017 -392.62890625 302.84765625 C-394.16663754 304.24352106 -395.7155623 305.62719097 -397.27734375 306.99609375 C-402.77081293 311.8314435 -408.00447349 316.89911969 -413.1875 322.0625 C-413.85281738 322.7232251 -414.51813477 323.3839502 -415.20361328 324.06469727 C-419.67198147 328.54694927 -423.87282859 333.20389297 -428 338 C-428.92575424 339.0480505 -429.85275674 340.09500029 -430.78125 341.140625 C-455.7088436 369.49724271 -476.73147414 401.99852051 -493.04199219 436.01464844 C-494.05538784 438.11478437 -495.09333791 440.20172294 -496.1328125 442.2890625 C-505.39917837 461.11244796 -512.89733158 480.92900165 -519 501 C-519.35457275 502.16305664 -519.35457275 502.16305664 -519.71630859 503.34960938 C-541.21371414 575.13175234 -542.80694365 651.96101898 -527 725 C-526.77086914 726.06283203 -526.54173828 727.12566406 -526.30566406 728.22070312 C-518.55012017 763.31763469 -505.04838791 796.94173591 -489 829 C-488.58282715 829.84224121 -488.1656543 830.68448242 -487.73583984 831.55224609 C-475.01769772 857.10826726 -458.89638939 880.81205918 -441 903 C-440.22914063 903.96550781 -439.45828125 904.93101562 -438.6640625 905.92578125 C-434.14625278 911.5294505 -429.43891156 916.91208732 -424.5546875 922.19921875 C-422.57613253 924.36836846 -420.64997292 926.56152799 -418.734375 928.78515625 C-414.79946181 933.2957937 -410.61743705 937.53004936 -406.375 941.75 C-405.63765625 942.49121094 -404.9003125 943.23242188 -404.140625 943.99609375 C-401.23482994 946.89668129 -398.40960763 949.68179242 -395.1640625 952.203125 C-393 954 -393 954 -391.70237708 956.29758888 C-389.69905688 959.47772731 -387.41694544 961.55160985 -384.59790421 964.03545284 C-377.98543654 969.95232333 -371.70180771 976.15518623 -365.43353271 982.43275452 C-364.21481702 983.64959708 -362.9958867 984.86622472 -361.7767632 986.08265871 C-358.46098297 989.3923779 -355.14827452 992.70515615 -351.83611655 996.01849973 C-348.25115987 999.60366184 -344.66333584 1003.18595268 -341.07591248 1006.76864624 C-334.06486577 1013.77142036 -327.05656717 1020.77693837 -320.04937604 1027.7835703 C-314.35767743 1033.47479273 -308.66518772 1039.16522267 -302.97214508 1044.85510063 C-286.82686209 1060.99159123 -270.68366272 1077.13016213 -254.54315099 1093.2714252 C-253.67474613 1094.13987002 -252.80634126 1095.00831484 -251.91162109 1095.90307617 C-251.04215698 1096.77258116 -250.17269287 1097.64208615 -249.27688137 1098.53793978 C-235.14912863 1112.6661 -221.01637936 1126.78925044 -206.88138935 1140.91016955 C-192.36336153 1155.41385895 -177.84903948 1169.92124763 -163.33861184 1184.43254083 C-155.1933084 1192.57817682 -147.04645922 1200.7222531 -138.89562225 1208.86235237 C-131.96598893 1215.78291469 -125.03978279 1222.70688391 -118.11809281 1229.63539124 C-114.58441954 1233.1723452 -111.04911818 1236.70763202 -107.50949669 1240.23863411 C-104.27484616 1243.46548814 -101.04477499 1246.6968511 -97.81841806 1249.93199687 C-96.64556972 1251.10639529 -95.47100025 1252.27907766 -94.29461834 1253.44993652 C-92.70591361 1255.03167034 -91.12338765 1256.61932962 -89.54236984 1258.20874119 C-88.65881026 1259.0920834 -87.77525068 1259.97542562 -86.86491656 1260.88553578 C-85 1263 -85 1263 -85 1265 C-123.16385195 1265.51885597 -161.11064142 1263.70447451 -198.80712891 1257.5234375 C-200.86855207 1257.18548894 -202.93068735 1256.85184295 -204.99365234 1256.5234375 C-219.09238118 1254.27715902 -232.90457395 1251.28005307 -246.74902344 1247.80322266 C-250.00593425 1246.99853382 -253.2702662 1246.23529177 -256.5390625 1245.48046875 C-331.31870935 1227.93325165 -405.02594516 1193.30431514 -466.71435547 1147.68408203 C-469.05137216 1145.96214857 -471.40105269 1144.25880998 -473.75390625 1142.55859375 C-483.82604558 1135.25358187 -493.55819144 1127.63597584 -503.07470703 1119.62109375 C-504.88700461 1118.09514195 -506.70607809 1116.57772697 -508.52734375 1115.0625 C-514.86295363 1109.7718435 -521.02576574 1104.32338159 -527.07421875 1098.70703125 C-528.91717122 1097.00186962 -530.77237704 1095.30976646 -532.64453125 1093.63671875 C-539.7591362 1087.25494865 -546.54772409 1080.56038561 -553.3125 1073.8125 C-553.78862732 1073.33896088 -554.26475464 1072.86542175 -554.75531006 1072.37753296 C-560.39668054 1066.7603561 -565.82437085 1061.04735062 -571 1055 C-572.45445517 1053.39231627 -573.91220895 1051.78760285 -575.375 1050.1875 C-579.21928245 1045.92254692 -582.89526905 1041.5513915 -586.50390625 1037.0859375 C-588.31198156 1034.85060183 -590.13112763 1032.62811795 -591.96484375 1030.4140625 C-604.69569154 1014.99622326 -616.20902268 998.86620861 -627.3125 982.25 C-627.776633 981.55697784 -628.24076599 980.86395569 -628.71896362 980.14993286 C-640.43398199 962.62733205 -650.82470535 944.45442164 -661 926 C-661.46051758 925.16984375 -661.92103516 924.3396875 -662.39550781 923.484375 C-675.8997859 899.03321097 -686.2428962 873.11992704 -696 847 C-696.42829102 845.86481934 -696.85658203 844.72963867 -697.29785156 843.56005859 C-702.05469964 830.91941785 -706.25205295 818.28726463 -709.61328125 805.203125 C-710.59727896 801.38871059 -711.73251781 797.64732607 -712.9296875 793.89453125 C-715.32920599 786.16795747 -717.11464597 778.34028863 -718.8125 770.4375 C-718.9816391 769.65320618 -719.1507782 768.86891235 -719.32504272 768.06085205 C-726.19068284 735.98383195 -730.84180045 703.72707293 -733 671 C-733.0928125 669.80568359 -733.185625 668.61136719 -733.28125 667.38085938 C-734.21570777 654.59881207 -734.24255794 641.81150632 -734.25 629 C-734.25100708 627.79257141 -734.25201416 626.58514282 -734.25305176 625.34112549 C-734.20200549 534.279094 -714.22489847 442.69691603 -668.41601562 346.87890625 C-667.22932076 344.46623282 -666.05583675 342.04808448 -664.890625 339.625 C-641.85080424 292.08078359 -610.54967147 247.32299094 -575.02734375 208.2421875 C-573.26032801 206.28791576 -571.53086471 204.30940263 -569.8125 202.3125 C-561.27459148 192.54372595 -552.28026505 183.18854592 -543.125 174 C-542.43615723 173.30656494 -541.74731445 172.61312988 -541.03759766 171.89868164 C-537.11398164 167.98686384 -533.08357894 164.26232838 -528.88867188 160.64355469 C-526.08893694 158.20717728 -523.39424791 155.66351022 -520.6875 153.125 C-514.98515128 147.82625534 -509.07285619 142.87101964 -503 138 C-501.80726658 137.0172335 -500.61594599 136.03275069 -499.42578125 135.046875 C-470.58075575 111.22663176 -439.25117234 90.4481981 -406.51123047 72.39599609 C-404.26530794 71.14748501 -402.03723162 69.8744921 -399.81640625 68.58203125 C-358.91459577 44.84243429 -312.64736921 27.07294213 -267 15 C-265.45119141 14.58669434 -265.45119141 14.58669434 -263.87109375 14.16503906 C-245.39237403 9.27265075 -226.80738643 5.36322691 -208 2 C-206.90059082 1.80277344 -205.80118164 1.60554688 -204.66845703 1.40234375 C-138.01859585 -10.36242113 -66.76631904 -11.21584017 0 0 Z " fill="#EED0A8" transform="translate(1178,451)"/>
<path d="M0 0 C4.72925642 3.95162861 9.2111073 8.06430387 13.56446838 12.42466068 C14.18910129 13.04634216 14.81373419 13.66802364 15.45729536 14.30854395 C17.54231344 16.38492443 19.62381331 18.46479518 21.70532227 20.54469299 C23.21742647 22.05206266 24.72973879 23.55922359 26.24224091 25.066194 C30.39220224 29.20228608 34.53903166 33.34150569 38.68530965 37.48128974 C42.24298928 41.0325867 45.80250801 44.5820374 49.36204904 48.13146848 C61.08057997 59.81673382 72.79328052 71.50783229 84.50435257 83.20057216 C87.55180062 86.24324888 90.5993669 89.28580718 93.64694214 92.3283565 C112.56674044 111.21712231 131.48432966 130.10809899 150.39700317 149.00399876 C154.77391055 153.37696903 159.1508553 157.74990188 163.52783203 162.12280273 C164.07160017 162.6660692 164.61536831 163.20933567 165.17561427 163.76906476 C182.8295925 181.40660303 200.49456341 199.03307955 218.16572092 216.65340452 C236.33459934 234.77011362 254.49378711 252.89647655 272.6402357 271.03565375 C275.20040627 273.59479569 277.76068065 276.15383375 280.3210144 278.71281242 C280.82490625 279.21644623 281.3287981 279.72008004 281.84795939 280.23897548 C289.96934667 288.35566109 298.10081803 296.46217162 306.23599092 304.56503751 C314.40242012 312.69950567 322.55758682 320.84509462 330.70206755 329.00154609 C335.11760806 333.42293898 339.53796717 337.8392267 343.97138786 342.24269676 C348.02405717 346.26820858 352.06283199 350.30712193 356.09066284 354.35748219 C357.55556232 355.8256313 359.02562657 357.28864748 360.50112355 358.74614567 C362.49556389 360.71770966 364.47089367 362.70658599 366.44226074 364.70118046 C367.02847291 365.27191639 367.61468508 365.84265232 368.21866125 366.43068328 C369.79186249 368.04552084 369.79186249 368.04552084 372 371 C371.91139984 373.71285957 371.91139984 373.71285957 371 376 C370.66186279 376.95471191 370.32372559 377.90942383 369.9753418 378.89306641 C369.55422119 379.95187012 369.13310059 381.01067383 368.69921875 382.1015625 C368.22323242 383.29942383 367.74724609 384.49728516 367.25683594 385.73144531 C366.7343715 387.02955769 366.21124129 388.32740227 365.6875 389.625 C365.41989868 390.29059937 365.15229736 390.95619873 364.87658691 391.64196777 C359.26265977 405.58414795 353.27490262 419.34201241 347 433 C346.55527344 433.96969727 346.55527344 433.96969727 346.1015625 434.95898438 C332.62811097 464.31186092 318.19140672 493.04192406 302 521 C300.86960838 522.96864477 299.73940386 524.93739698 298.609375 526.90625 C285.59092789 549.49783969 271.6162819 571.4120184 257 593 C256.48453613 593.76280273 255.96907227 594.52560547 255.43798828 595.31152344 C244.38547172 611.63628232 232.76070522 627.47761231 220.58105469 642.97802734 C218.34178474 645.8417756 216.14086369 648.73353082 213.9375 651.625 C205.68337034 662.36482501 197.09360546 672.82713256 188.22998047 683.06884766 C185.32708742 686.42762229 182.51360114 689.8370622 179.75 693.3125 C174.45053585 699.8497952 168.60758049 705.87283947 162.8125 711.96875 C159.81884031 715.1205874 156.88786066 718.31365675 154 721.5625 C150.83154821 725.12249051 147.54739984 728.51206327 144.1171875 731.8203125 C142.27974132 733.71200063 140.5663373 735.6463372 138.84765625 737.64453125 C134.62983276 742.49727178 130.11806404 747.02864636 125.5625 751.5625 C124.75490234 752.37396484 123.94730469 753.18542969 123.11523438 754.02148438 C118.79261196 758.33714044 114.38821957 762.47811383 109.75756836 766.46069336 C107.39127697 768.53312942 105.19372075 770.7469895 103 773 C99.53091869 776.50593042 95.99720673 779.82799263 92.25 783.03125 C89.91125281 785.07765379 87.63959486 787.18377784 85.36889648 789.30493164 C80.03882973 794.2820856 74.61447638 799.03640103 68.92578125 803.60546875 C65.49070823 806.41681689 62.15307794 809.32769502 58.8125 812.25 C46.19576955 823.23742288 33.1224567 833.50940833 19.69921875 843.4921875 C15.80619062 846.38878117 11.95531412 849.33376492 8.125 852.3125 C-60.15596299 905.02366379 -137.96842012 947.84261245 -223.34716797 983.484375 C-226.6960641 984.87389159 -230.03788742 986.27918295 -233.37890625 987.6875 C-235.18952269 988.4389027 -237.00067127 989.18902519 -238.8125 989.9375 C-239.60624023 990.27386475 -240.39998047 990.61022949 -241.21777344 990.95678711 C-247.24248612 993.40086358 -247.24248612 993.40086358 -251 992 C-253.19702734 990.08915616 -255.23008718 988.16842865 -257.27061844 986.10131836 C-258.2145889 985.16298959 -258.2145889 985.16298959 -259.17762947 984.20570469 C-261.30150029 982.09083426 -263.41443548 979.96535948 -265.52764893 977.83984375 C-267.05663832 976.31287717 -268.58628476 974.78656828 -270.11653399 973.26086426 C-274.3328626 969.05321593 -278.53973247 964.83621843 -282.74516869 960.61768723 C-287.27689596 956.07509477 -291.817238 951.54112758 -296.35653687 947.00610352 C-304.2244787 939.14315321 -312.08689687 931.27471532 -319.94541168 923.40234375 C-328.18933075 915.14390524 -336.43611921 906.88835063 -344.6868515 898.63671875 C-345.45586153 897.86761708 -345.45586153 897.86761708 -346.24040711 897.08297801 C-348.32134895 895.00180666 -350.40231195 892.92065648 -352.48330282 890.83953416 C-371.45613605 871.865489 -390.4217108 852.88420564 -409.3828125 833.8984375 C-427.29661935 815.96133129 -445.21498575 798.02879694 -463.13867188 780.1015625 C-463.69094646 779.5491764 -464.24322104 778.9967903 -464.81223122 778.42766523 C-467.03871919 776.20072841 -469.26521061 773.97379502 -471.49170221 771.74686182 C-472.60118098 770.63716267 -473.71065929 769.52746306 -474.82013715 768.41776299 C-475.92683622 767.31084257 -477.03353658 766.20392344 -478.14023823 765.09700561 C-495.74436818 747.48936412 -513.3445224 729.87774924 -530.94398989 712.26544762 C-536.10166059 707.104054 -541.2595608 701.94289004 -546.41796207 696.78222656 C-557.26789201 685.92749385 -568.11661964 675.07156719 -578.96087554 664.21116543 C-583.44765736 659.71775564 -587.93522571 655.22513899 -592.42493057 650.73464966 C-596.52747381 646.63132405 -600.62771902 642.52571718 -604.7260631 638.41819763 C-606.21631278 636.92542334 -607.70742073 635.43350533 -609.1994299 633.94248962 C-611.21283528 631.93016684 -613.2231931 629.91485035 -615.23274612 627.89868164 C-615.82521055 627.30798669 -616.41767497 626.71729174 -617.02809286 626.10869694 C-621 622.11415943 -621 622.11415943 -621 621 C-620.16267334 620.95512451 -619.32534668 620.91024902 -618.46264648 620.86401367 C-565.8135537 617.99016271 -512.01608885 612.2451897 -461.546875 596.09765625 C-458.66963801 595.20723379 -455.79076967 594.36917679 -452.890625 593.55859375 C-451.5128186 593.17272095 -451.5128186 593.17272095 -450.10717773 592.77905273 C-448.30062258 592.27545201 -446.49290995 591.7759772 -444.68383789 591.28149414 C-439.52771661 589.83930807 -434.62088793 588.10788904 -429.6730957 586.06689453 C-425.64204652 584.45800925 -421.53849931 583.071938 -417.4375 581.65307617 C-403.73116766 576.89276446 -390.42006445 571.52895169 -377.22753906 565.47705078 C-373.83394725 563.92400763 -370.42919833 562.39724686 -367.0234375 560.87109375 C-352.75919076 554.42495789 -339.06899041 547.37009093 -325.55761719 539.47412109 C-322.46074405 537.68919173 -319.32132681 535.99322021 -316.17382812 534.29980469 C-304.33572577 527.90212403 -293.1680606 520.49094655 -282 513 C-281.21222168 512.47164551 -280.42444336 511.94329102 -279.61279297 511.39892578 C-262.02509827 499.55335893 -245.30585436 486.54604826 -229 473 C-228.24468994 472.37424072 -228.24468994 472.37424072 -227.47412109 471.73583984 C-220.12405953 465.63377397 -213.0089608 459.32840811 -206.02734375 452.80859375 C-203.5185006 450.46820262 -200.95693067 448.19724868 -198.375 445.9375 C-193.18007628 441.28175288 -188.25216511 436.36161379 -183.3125 431.4375 C-182.50409668 430.63368896 -181.69569336 429.82987793 -180.86279297 429.00170898 C-176.61284087 424.74083269 -172.52171489 420.40489317 -168.59741211 415.8425293 C-166.18043185 413.05467204 -163.64880354 410.37825436 -161.125 407.6875 C-155.82473304 401.98869804 -150.86881195 396.07254036 -146 390 C-144.64583333 388.375 -143.29166667 386.75 -141.9375 385.125 C-140.28305667 383.08963673 -138.6369506 381.04932965 -137 379 C-136.47116211 378.33935547 -135.94232422 377.67871094 -135.39746094 376.99804688 C-116.19390113 352.83008272 -99.4252889 326.71075708 -84 300 C-83.55865723 299.24428711 -83.11731445 298.48857422 -82.66259766 297.70996094 C-61.48182291 261.33555504 -45.7386431 222.68493859 -32 183 C-31.77304443 182.34615326 -31.54608887 181.69230652 -31.31225586 181.01864624 C-28.32508187 172.37286717 -25.73010289 163.684895 -23.5 154.8125 C-23.09587891 153.2337207 -23.09587891 153.2337207 -22.68359375 151.62304688 C-22.10782164 149.36682361 -21.53762778 147.10917161 -20.97216797 144.8503418 C-20.2671419 142.05803488 -19.54706862 139.27215927 -18.81298828 136.48754883 C-15.7493079 124.74084573 -13.38981043 112.95968182 -11.36962891 100.99145508 C-10.87566057 98.06641156 -10.37042232 95.14348866 -9.86328125 92.22070312 C-5.59721461 67.46304718 -5.59721461 67.46304718 -2.875 42.5 C-2.79644775 41.54150146 -2.71789551 40.58300293 -2.63696289 39.59545898 C-1.88819581 29.80382956 -1.58447004 19.99501672 -1.34130859 10.1796875 C-1.3098877 8.99761719 -1.2784668 7.81554688 -1.24609375 6.59765625 C-1.22216553 5.54070557 -1.1982373 4.48375488 -1.17358398 3.39477539 C-1 1 -1 1 0 0 Z " fill="#896856" transform="translate(1716,1095)"/>
<path d="M0 0 C0.90862793 0.30389648 1.81725586 0.60779297 2.75341797 0.92089844 C43.12934394 14.5310572 80.0130745 34.95559407 111.09375 64.28125 C113.47379805 66.50774656 115.88813685 68.64573118 118.375 70.75 C121.54682946 73.50067368 124.26551372 76.4596897 126.97265625 79.6640625 C128.97156213 81.96723343 131.05382303 84.17486086 133.15698242 86.38256836 C181.69437554 137.6762722 207.19249709 210.37077163 207.18530273 280.29272461 C207.18753286 282.72331194 207.2059038 285.1534742 207.22460938 287.58398438 C207.22753681 289.14322764 207.22952594 290.70247302 207.23046875 292.26171875 C207.23765427 292.98147385 207.24483978 293.70122894 207.25224304 294.4427948 C207.23537008 298.1283644 207.0354628 300.86840242 205 304 C204.49210937 303.52949219 203.98421875 303.05898437 203.4609375 302.57421875 C195.58572573 295.45113394 189.20896929 292.71775037 178.625 292.84375 C172.09535893 293.23241911 166.76339243 294.90744797 161 298 C160.34 298 159.68 298 159 298 C159 298.66 159 299.32 159 300 C158.34 300 157.68 300 157 300 C156.71125 300.7425 156.4225 301.485 156.125 302.25 C155 305 155 305 153.96484375 306.86645508 C152.86387479 309.30101168 152.62859 311.2264512 152.4375 313.88671875 C152.36273437 314.82580078 152.28796875 315.76488281 152.2109375 316.73242188 C152.10652344 318.19518555 152.10652344 318.19518555 152 319.6875 C151.02484255 333.07785649 149.6413008 341.89053818 139.625 351.375 C135.05041494 355.24034707 129.93800343 358.29096601 124.81103516 361.36083984 C117.32653243 365.79064764 117.32653243 365.79064764 111.625 372.1875 C110.67815326 376.44831031 110.84812153 380.65458819 111 385 C112.35347689 385.46036629 113.707827 385.91816537 115.0625 386.375 C115.88105469 386.65214844 116.69960937 386.92929688 117.54296875 387.21484375 C119.62656303 387.8806664 121.7489449 388.42313183 123.875 388.9375 C127.29710271 390.10101492 128.29653257 390.87697637 130 394 C131.59712091 398.79136272 131.58050244 403.25849269 130 408 C129.67 408.66 129.34 409.32 129 410 C128.34 410 127.68 410 127 410 C126.76925781 410.70769531 126.53851562 411.41539062 126.30078125 412.14453125 C124.7386921 415.57362184 122.69153363 417.87562415 120.1875 420.6875 C112.77911304 429.24700152 108.45784232 437.84567378 108.4296875 449.3046875 C109.28516876 454.84773731 111.65512741 459.55994028 114.24194336 464.50439453 C116.95215593 469.8937022 117.43578453 473.08683475 116 479 C114.48748505 481.96317985 112.41729011 484.51138392 109.17578125 485.62890625 C99.80961751 487.22636685 92.95187406 485.8786978 84.25 482.5 C74.25482004 478.69812339 64.80495495 476.69781904 54.28515625 479.80078125 C47.46072129 483.2868071 42.1398212 489.62528097 36.97045898 495.17382812 C31.18288965 501.27626334 24.94878811 505.16370415 17 507.9375 C6.38774415 512.06448839 -5.47325054 520.18351745 -10.28125 530.78515625 C-13.08380964 539.42130471 -13.36387751 547.38534655 -13.47851562 556.41992188 C-13.5181543 557.96583008 -13.5181543 557.96583008 -13.55859375 559.54296875 C-13.57204834 560.47133545 -13.58550293 561.39970215 -13.59936523 562.35620117 C-14.08126395 565.53626281 -15.08147212 567.43246284 -17 570 C-20.80708708 571.26902903 -24.59107388 571.50617964 -28.5625 571.875 C-35.85717152 572.58788202 -43.04620112 573.55983389 -50.24438477 574.94677734 C-62.60971683 577.2080544 -75.26872036 577.16468436 -87.79833984 577.13037109 C-90.1299484 577.12498858 -92.46136579 577.13036827 -94.79296875 577.13671875 C-105.97025311 577.14218268 -117.08849319 577.01129263 -128.046875 574.58984375 C-131.17277848 573.96549001 -134.29957689 573.50080629 -137.45336914 573.04370117 C-164.09873846 569.12439541 -189.83545219 560.85230383 -214 549 C-214.97582031 548.52433594 -215.95164062 548.04867187 -216.95703125 547.55859375 C-245.18224712 533.67675802 -272.1548923 515.85076483 -294 493 C-296.5067182 490.47665349 -299.02853235 487.9722458 -301.578125 485.4921875 C-307.86844901 479.33061281 -313.56282741 472.94167919 -319 466 C-319.76699219 465.04996094 -320.53398438 464.09992188 -321.32421875 463.12109375 C-340.71461298 438.67233581 -354.69943963 410.97945623 -366 382 C-366.26603027 381.33822754 -366.53206055 380.67645508 -366.80615234 379.99462891 C-375.49312453 358.37038049 -378.89962924 334.962746 -382 312 C-382.11633789 311.17886719 -382.23267578 310.35773438 -382.35253906 309.51171875 C-383.33472398 301.50153217 -383.15012132 293.40862495 -383.13037109 285.35205078 C-383.12504086 282.76979624 -383.13032583 280.18771781 -383.13671875 277.60546875 C-383.1440883 263.81207478 -382.44588843 250.31724406 -380.1875 236.6875 C-379.91921387 235.05832642 -379.91921387 235.05832642 -379.64550781 233.39624023 C-378.14187164 224.4807876 -376.40922686 215.71536477 -374 207 C-373.61400635 205.60007812 -373.61400635 205.60007812 -373.22021484 204.171875 C-362.81999432 167.15155304 -346.00712389 132.17365963 -322 102 C-321.38382813 101.20464844 -320.76765625 100.40929687 -320.1328125 99.58984375 C-308.91779728 85.28022889 -296.87627518 71.77898227 -283 60 C-282.09121094 59.20207031 -281.18242188 58.40414062 -280.24609375 57.58203125 C-267.41745108 46.39581708 -253.63036312 36.48742878 -238.84326172 28.05615234 C-236.97981507 26.98843444 -235.1322595 25.89648772 -233.28515625 24.80078125 C-164.99361293 -15.24397135 -75.27831488 -25.65980997 0 0 Z " fill="#583319" transform="translate(1168,798)"/>
<path d="M0 0 C6.76385532 5.58027913 12.95421556 11.72116333 19.19970703 17.86412048 C20.4396287 19.08067122 21.67970268 20.29706675 22.9199152 21.51332098 C26.31741645 24.84663425 29.71181926 28.18308665 33.10547233 31.5203172 C35.27771572 33.65604324 37.45077805 35.79093278 39.62407875 37.92558289 C67.12591638 64.94011642 94.53634826 92.04698977 121.90958601 119.19177806 C126.38236178 123.62719518 130.85577569 128.06196816 135.32958984 132.49633789 C136.22008746 133.37900707 137.11058508 134.26167626 138.02806747 135.17109299 C152.44528702 149.45820511 166.91945047 163.68624785 181.41591835 177.89289337 C196.31616771 192.49771779 211.15470879 207.16314204 225.93792725 221.88642508 C235.0479871 230.95580484 244.20194519 239.97553007 253.41892773 248.9362473 C259.73975231 255.09042252 265.9992597 261.30288986 272.21486133 267.56330406 C275.79734434 271.16816368 279.39997961 274.74274943 283.07816505 278.25013161 C307.08237727 301.19374276 307.08237727 301.19374276 307.5271495 315.517879 C307.47108125 321.31000062 306.66029044 326.96703316 305.58812237 332.65468132 C304.72111652 337.58632652 304.52010328 342.50549004 304.3125 347.5 C302.91895416 364.76808032 299.83848591 381.92321178 297 399 C296.87433655 399.75869385 296.7486731 400.5173877 296.61920166 401.29907227 C292.40437226 426.6588395 287.12294866 451.73461767 278.94873047 476.14648438 C278.02400683 478.92779417 277.11878272 481.71503136 276.21736145 484.50396729 C267.17796305 512.43857096 256.76434652 539.52537772 244 566 C243.42185477 567.20588223 242.84373022 568.41177437 242.265625 569.61767578 C233.42582894 588.00440923 223.71436591 605.63514283 213 623 C212.16227051 624.36318359 212.16227051 624.36318359 211.30761719 625.75390625 C198.19115977 647.02904085 183.89855364 667.69942535 168 687 C166.96359375 688.27810547 166.96359375 688.27810547 165.90625 689.58203125 C157.03252014 700.50234317 147.96911612 711.19469227 138.38720703 721.49951172 C137.0172049 722.98139012 135.66121875 724.47491454 134.30859375 725.97265625 C128.13296358 732.78466896 121.74121298 739.3630784 115.25 745.875 C114.45787109 746.67172119 113.66574219 747.46844238 112.84960938 748.28930664 C108.63149362 752.49639176 104.33357331 756.54143334 99.81787109 760.42724609 C97.21362774 762.68033979 94.70734075 765.02784764 92.1875 767.375 C87.59440625 771.61310701 82.88729778 775.65600193 78.015625 779.57421875 C75.80357784 781.35359865 73.60793161 783.14630553 71.421875 784.95703125 C42.56924584 808.77909557 11.23738389 829.56055097 -21.51074219 847.61279297 C-23.69468924 848.82985723 -25.85561248 850.07560145 -28.0078125 851.34765625 C-39.72266876 858.23611521 -52.07908546 863.79787403 -64.44873047 869.39208984 C-66.72101915 870.42091517 -68.99110296 871.45463302 -71.25830078 872.49462891 C-86.51852215 879.49317512 -101.99596927 885.39719584 -117.85595703 890.890625 C-121.44413513 892.156713 -124.99277205 893.50940489 -128.54248047 894.87866211 C-138.96629751 898.87980246 -149.60123175 901.67649156 -160.43066406 904.35644531 C-163.84265447 905.21106397 -167.2322342 906.1345006 -170.625 907.0625 C-173.08233793 907.71211046 -175.54071928 908.35778369 -178 909 C-178.66854004 909.17853516 -179.33708008 909.35707031 -180.02587891 909.54101562 C-218.37519626 919.67924079 -259.12343015 925.46102313 -298.74658203 926.89892578 C-301.00172387 927.00007732 -303.24551881 927.16596479 -305.49609375 927.33984375 C-306.91396327 927.41593465 -308.33193011 927.49023954 -309.75 927.5625 C-310.98234375 927.64628906 -312.2146875 927.73007813 -313.484375 927.81640625 C-317.31785029 926.9261881 -317.65246362 926.59365481 -319.97247314 923.70416451 C-322.98117874 920.12821926 -326.13498943 916.74874536 -329.43328857 913.44087029 C-330.19257853 912.67877492 -330.19257853 912.67877492 -330.96720767 911.90128369 C-332.62824704 910.2379223 -334.29213108 908.57743746 -335.95605469 906.91696167 C-337.17000974 905.70185305 -338.38374694 904.48652674 -339.59728622 903.27100289 C-342.91777674 899.9463515 -346.24136226 896.62480954 -349.565485 893.30379033 C-353.15560213 889.71594028 -356.74283495 886.12520837 -360.33044434 882.53485107 C-367.35290182 875.50795106 -374.37805516 868.48375224 -381.40418434 861.46052371 C-387.11470067 855.75226718 -392.82423848 850.04303362 -398.53308105 844.33310318 C-399.34606777 843.51996323 -400.15905448 842.70682328 -400.99667716 841.86904273 C-402.64830654 840.21709363 -404.29993367 838.56514228 -405.95155859 836.91318871 C-421.43221859 821.42967841 -436.91594004 805.94923254 -452.40071249 790.46983518 C-465.68489435 777.19012179 -478.96645099 763.90778756 -492.24609375 750.62353516 C-507.67224606 735.19203061 -523.10002023 719.76215053 -538.53038406 704.33485711 C-540.17589779 702.68966193 -541.82140942 701.04446467 -543.46691895 699.39926529 C-544.68131673 698.18509892 -544.68131673 698.18509892 -545.92024779 696.94640394 C-551.62316996 691.24434491 -557.3249315 685.54112689 -563.02624512 679.83745956 C-569.97421545 672.88668388 -576.92396624 665.93769431 -583.87600136 658.99098407 C-587.42239024 655.4472221 -590.96797706 651.90266748 -594.51139832 648.35593796 C-597.75620925 645.10814338 -601.00332694 641.86267368 -604.25228548 638.61902834 C-605.42601075 637.44641841 -606.59889776 636.27296868 -607.77085066 635.09858738 C-613.34200299 629.51677906 -618.8983604 624.0109492 -625 619 C-624.67 618.34 -624.34 617.68 -624 617 C-623.44054687 617.52207031 -622.88109375 618.04414062 -622.3046875 618.58203125 C-615.16792935 625.13362112 -607.68130369 631.10574253 -600 637 C-599.38914551 637.47308594 -598.77829102 637.94617187 -598.14892578 638.43359375 C-538.10960783 684.8669358 -464.82700622 716.3845884 -389.30078125 725.38305664 C-386.73571724 725.68920469 -384.17257156 726.00870396 -381.609375 726.33007812 C-341.41753887 731.29922077 -300.97073146 730.26929379 -261 724 C-260.3060614 723.89153748 -259.6121228 723.78307495 -258.89715576 723.67132568 C-244.04183753 721.32451751 -229.4265245 718.24898003 -215 714 C-213.95714844 713.69610352 -212.91429687 713.39220703 -211.83984375 713.07910156 C-155.54251823 696.53896013 -103.84712152 671.12666903 -57.88647461 634.54345703 C-57.17499268 633.97997559 -56.46351074 633.41649414 -55.73046875 632.8359375 C-55.10551514 632.33626465 -54.48056152 631.8365918 -53.83666992 631.32177734 C-51.9643162 629.97431981 -50.07031514 629.00746657 -48 628 C-47.15110703 628.85777542 -46.30221405 629.71555084 -45.42759705 630.59931946 C-37.42001257 638.68804708 -29.40184412 646.76614915 -21.37323666 654.83401203 C-17.24614512 658.98196371 -13.12285119 663.13354765 -9.00805664 667.29370117 C-5.03572681 671.3095432 -1.05365978 675.31548916 2.93530083 679.3148098 C4.45421466 680.84110521 5.96960782 682.37091277 7.48137093 683.90429115 C9.6021 686.0541239 11.73508961 688.19104245 13.87133789 690.32543945 C14.49137192 690.95985458 15.11140594 691.59426971 15.75022888 692.24790955 C19.60439006 696.066163 22.89059436 698.15868099 28 700 C28.80695312 700.38542969 29.61390625 700.77085937 30.4453125 701.16796875 C33.91882152 702.29924921 37.26155246 702.32938527 40.875 702.3125 C41.55691406 702.32861328 42.23882813 702.34472656 42.94140625 702.36132812 C48.01389377 702.36615907 51.45280745 701.24016103 56 699 C57.03125 698.525625 58.0625 698.05125 59.125 697.5625 C66.86307893 693.35702232 70.85678396 687.24869234 74.1484375 679.1875 C75.16333897 675.38860275 75.40543074 671.78032321 75.4375 667.875 C75.47037109 667.19179687 75.50324219 666.50859375 75.53710938 665.8046875 C75.64785397 654.85104065 70.54439862 646.95701525 63.19018555 639.39550781 C60.36919044 636.54989962 57.50592956 633.74998602 54.63671875 630.953125 C53.11775757 629.44724134 51.60035068 627.93978842 50.08442688 626.43084717 C46.11643553 622.48941055 42.1278729 618.56946434 38.13446045 614.65380859 C34.05276738 610.6440957 29.99115033 606.61415632 25.92773438 602.5859375 C17.97120393 594.70417647 9.99276607 586.84500097 2 579 C3.36709342 576.18367898 4.76296757 573.90571258 6.80078125 571.5234375 C7.35902588 570.86239014 7.91727051 570.20134277 8.49243164 569.52026367 C9.0930542 568.81232666 9.69367676 568.10438965 10.3125 567.375 C54.33293282 514.60840971 84.93138546 449.17308535 99 382 C99.23799316 380.88786133 99.47598633 379.77572266 99.72119141 378.62988281 C103.53892793 360.5280441 105.55265505 342.41509732 107 324 C107.10803955 322.70473389 107.10803955 322.70473389 107.21826172 321.38330078 C109.49544379 293.49537075 108.45627318 265.05299156 105.125 237.3125 C105.04390991 236.63447327 104.96281982 235.95644653 104.87927246 235.25787354 C102.8710882 218.67248609 100.14891797 202.3304616 96.0625 186.125 C95.8722525 185.36663849 95.682005 184.60827698 95.48599243 183.82693481 C88.51216442 156.24116606 79.35175557 129.65334551 67 104 C66.21689453 102.35765381 66.21689453 102.35765381 65.41796875 100.68212891 C51.84565216 72.36106318 35.71515005 45.49972175 16 21 C14.83017578 19.54207031 14.83017578 19.54207031 13.63671875 18.0546875 C9.62194592 13.10200976 5.52373886 8.25831835 1.21484375 3.55859375 C0 2 0 2 0 0 Z " fill="#B69F81" transform="translate(1410,789)"/>
<path d="M0 0 C2.95372995 0.01087403 5.90741376 0.0104665 8.86116028 0.00986195 C11.74390937 0.0101357 14.62662952 0.01564761 17.5093689 0.02286339 C19.51818495 0.02750602 21.52700695 0.02930867 23.53582764 0.03102112 C48.91069206 0.161661 74.00656127 5.81111238 98.20501709 13.19561768 C100.03806396 13.72928955 100.03806396 13.72928955 101.90814209 14.27374268 C129.21813905 22.33971052 156.19215703 34.91028133 180.20501709 50.19561768 C181.69968506 51.13534424 181.69968506 51.13534424 183.22454834 52.09405518 C198.44689136 61.96463054 212.72939521 73.06670563 226.20501709 85.19561768 C227.78784082 86.61285369 229.37109837 88.02960554 230.95501709 89.44561768 C231.59922607 90.02343994 232.24343506 90.60126221 232.90716553 91.19659424 C235.27810868 93.25920394 237.71935647 95.20407654 240.18157959 97.15655518 C246.21585884 102.08200548 251.73868355 107.42510615 257.22161865 112.95147705 C258.82849016 114.56908055 260.44580203 116.17568681 262.06439209 117.78155518 C268.55653324 124.26515168 274.50473872 130.99388773 280.20501709 138.19561768 C281.18128153 139.3696993 282.16116846 140.54078907 283.14642334 141.70733643 C314.0239395 178.83676812 336.53323631 224.51624403 347.55804443 271.48077393 C348.183232 274.10420252 348.85425405 276.71167222 349.53704834 279.32061768 C359.76363942 319.4905148 360.32804799 363.54313162 353.95501709 404.38311768 C353.84552734 405.09562683 353.7360376 405.80813599 353.62322998 406.54223633 C350.93624553 423.92954782 347.07484788 440.60861195 341.20501709 457.19561768 C340.72350604 458.64015083 340.24449807 460.08551989 339.76751709 461.53155518 C327.10850623 499.58065043 307.83353954 534.47017672 282.54534912 565.54669189 C281.27448033 567.11016144 280.01858933 568.68577094 278.76361084 570.26202393 C271.76709495 578.85357966 263.95003954 586.66282198 256.14251709 594.50811768 C255.31057327 595.34796204 255.31057327 595.34796204 254.46182251 596.20477295 C247.38038228 603.33809904 240.13745856 609.9974567 232.20501709 616.19561768 C231.47597168 616.77335937 230.74692627 617.35110107 229.99578857 617.9463501 C186.37675477 652.31647088 135.74577305 675.60769559 81.20501709 686.19561768 C80.37792236 686.36964111 79.55082764 686.54366455 78.69866943 686.72296143 C59.86431728 690.499346 40.77773284 690.5441654 21.65155029 690.5112915 C18.73049553 690.50665297 15.80985642 690.51362405 12.88885498 690.53179932 C-3.88268713 690.63499667 -20.26182823 690.37480354 -36.79498291 687.19561768 C-37.53370636 687.05914825 -38.27242981 686.92267883 -39.03353882 686.78207397 C-43.23653291 686.00210148 -47.42132298 685.15677318 -51.59942627 684.25323486 C-53.62533986 683.81677056 -55.65415671 683.39631184 -57.68365479 682.97686768 C-111.14969617 671.7096311 -163.22407585 644.32551509 -203.38873291 607.35577393 C-205.85300374 605.1435308 -208.39494746 603.07434084 -210.98248291 601.00811768 C-216.3736412 596.65077525 -221.41367869 591.96969388 -226.45123291 587.21075439 C-229.5671359 584.26804581 -232.69210086 581.38195768 -235.98248291 578.63311768 C-241.74292734 573.65480255 -246.72366887 567.85694182 -251.79498291 562.19561768 C-252.322854 561.61247803 -252.8507251 561.02933838 -253.39459229 560.42852783 C-262.31059555 550.55413567 -270.26135624 540.15734583 -277.79498291 529.19561768 C-278.26114014 528.51837646 -278.72729736 527.84113525 -279.20758057 527.14337158 C-313.93180547 476.20034714 -336.57473445 413.48061832 -337.03326416 351.39874268 C-337.04305801 350.29925797 -337.05285187 349.19977325 -337.0629425 348.06697083 C-337.22983576 324.47790212 -337.26208947 301.42865136 -332.79498291 278.19561768 C-332.58067627 277.05318604 -332.36636963 275.91075439 -332.14556885 274.73370361 C-326.10499037 243.37017608 -315.99395262 212.38629735 -300.86236572 184.18585205 C-300.10407728 182.77195283 -299.35429436 181.35347747 -298.6104126 179.9319458 C-289.24258561 162.03801756 -278.31703574 145.05530651 -265.79498291 129.19561768 C-265.08213135 128.2906958 -264.36927979 127.38577393 -263.63482666 126.45343018 C-258.41011849 119.94788526 -252.84615515 113.79251512 -247.16802979 107.68634033 C-244.95089233 105.27918505 -242.78580394 102.82537637 -240.60748291 100.38311768 C-237.25896766 96.69870121 -233.84755434 93.32357924 -230.03717041 90.12530518 C-227.71492434 88.12671709 -225.49320432 86.04625823 -223.26593018 83.94342041 C-216.45186824 77.53260489 -209.35449032 71.70886578 -201.79498291 66.19561768 C-201.13981689 65.71592529 -200.48465088 65.23623291 -199.80963135 64.74200439 C-190.69499333 58.10133955 -181.42863751 51.88320987 -171.64996338 46.26348877 C-169.79667736 45.19659313 -167.95403714 44.11279089 -166.11138916 43.02764893 C-135.27457351 25.06511402 -102.07348313 13.1548669 -67.2588501 5.72296143 C-65.08303984 5.25727076 -62.91148999 4.77599584 -60.74029541 4.28936768 C-40.5924275 -0.04350714 -20.49436792 -0.0951742 0 0 Z M-34.79498291 53.19561768 C-35.69635986 53.33483643 -36.59773682 53.47405518 -37.52642822 53.61749268 C-94.56386212 62.69306227 -146.36283974 89.51142406 -188.79498291 128.19561768 C-190.52386991 129.73759797 -192.25303485 131.27926668 -193.98248291 132.82061768 C-200.73163092 138.91797881 -206.71445724 145.15762378 -212.41607666 152.25811768 C-214.78271321 155.18046691 -217.22250442 158.02837256 -219.66998291 160.88311768 C-228.81269745 171.84301771 -236.54839681 183.91990082 -243.79498291 196.19561768 C-244.14238525 196.77682373 -244.4897876 197.35802979 -244.84771729 197.95684814 C-285.3748867 266.07814503 -292.94924002 347.021376 -273.83404541 423.01593018 C-265.23252119 454.70188693 -251.09635474 486.58752888 -231.79498291 513.19561768 C-231.0357251 514.24620361 -230.27646729 515.29678955 -229.49420166 516.37921143 C-221.97321771 526.57605495 -213.91270468 536.19760747 -205.29498291 545.47296143 C-203.3323178 547.6104264 -201.45063365 549.76929056 -199.60748291 552.00811768 C-197.01753001 555.06763711 -194.14034875 557.62425932 -191.08404541 560.21124268 C-189.45994898 561.61916245 -187.87465013 563.07240158 -186.31842041 564.55499268 C-159.66098564 589.93587423 -126.12157015 609.2553931 -91.79498291 622.19561768 C-90.76324951 622.58459229 -89.73151611 622.97356689 -88.66851807 623.37432861 C-80.15391964 626.50292071 -71.57821499 629.06259602 -62.79498291 631.32061768 C-62.13043091 631.49303986 -61.46587891 631.66546204 -60.78118896 631.84310913 C-49.50970949 634.74992712 -38.25530513 636.79631594 -26.66314697 637.93365479 C-24.79498291 638.19561768 -24.79498291 638.19561768 -21.79498291 639.19561768 C-11.72064758 640.43129635 -1.55309307 640.39630281 8.58001709 640.38311768 C9.76222839 640.38270981 9.76222839 640.38270981 10.96832275 640.3822937 C28.42189117 640.35470663 45.48756196 639.40647185 62.60736084 635.84796143 C67.21247813 635.01294016 71.7625756 634.7458341 76.43548584 634.60186768 C79.68648667 634.12499308 81.58931146 633.16552742 84.20501709 631.19561768 C85.19957886 628.21193238 85.35679138 626.12384973 85.41595459 623.00421143 C85.44431396 621.97618408 85.47267334 620.94815674 85.50189209 619.88897705 C85.55331547 617.74590757 85.59777271 615.60265774 85.63470459 613.45928955 C86.01916161 600.57196972 89.31044402 590.6898181 98.64251709 581.63311768 C105.54218011 575.65272113 113.53757014 572.14521715 121.90814209 568.64483643 C128.5584442 565.72154012 133.28751844 561.18318368 138.30169678 556.02349854 C152.09838699 541.85535897 152.09838699 541.85535897 164.01751709 541.44561768 C171.97870022 541.44739611 178.65902197 543.83855629 186.00921631 546.68463135 C193.68326925 549.58810395 200.88133966 550.97017682 208.91204834 548.29327393 C212.08950248 546.77220985 213.37349395 545.20454855 215.20501709 542.19561768 C216.83864907 535.25827641 215.49832834 531.62886041 212.26751709 525.44561768 C208.29369459 517.1721939 206.45837947 510.67353192 208.91595459 501.55889893 C212.24701478 492.26324806 218.40540903 484.75357563 224.66595459 477.26202393 C226.40412655 475.3577149 226.40412655 475.3577149 226.20501709 473.19561768 C226.86501709 473.19561768 227.52501709 473.19561768 228.20501709 473.19561768 C230.33463392 468.93638401 230.81058729 464.88419904 230.20501709 460.19561768 C228.64066421 456.17299598 227.81778046 454.60412659 224.20501709 452.19561768 C222.38706586 451.6234011 220.55103631 451.10702853 218.70501709 450.63311768 C215.83180137 449.8877808 213.02200579 449.13461391 210.20501709 448.19561768 C209.61468337 437.13232654 209.61468337 437.13232654 213.20501709 432.19561768 C216.73187434 428.85336177 220.86983599 426.38544838 225.00579834 423.87530518 C239.85383827 415.36178421 239.85383827 415.36178421 248.72161865 401.36773682 C250.36017408 394.35096792 250.84072618 387.37201776 251.24017334 380.19171143 C251.69008523 374.07121195 252.84324432 370.32674453 256.20501709 365.19561768 C256.20501709 364.53561768 256.20501709 363.87561768 256.20501709 363.19561768 C256.86501709 363.19561768 257.52501709 363.19561768 258.20501709 363.19561768 C258.20501709 362.53561768 258.20501709 361.87561768 258.20501709 361.19561768 C259.56626709 360.76249268 259.56626709 360.76249268 260.95501709 360.32061768 C264.0504516 359.35076142 264.0504516 359.35076142 266.14251709 358.13311768 C272.60748533 355.19449575 281.63609972 355.30338833 288.45501709 357.00811768 C294.72407466 359.71521072 299.84891659 362.99502109 305.20501709 367.19561768 C306.45742534 363.33330008 306.34911728 359.47089478 306.33782959 355.45733643 C306.33878632 354.6995137 306.33974304 353.94169098 306.34072876 353.16090393 C306.34140879 351.55292681 306.33956682 349.94494693 306.33538818 348.3369751 C306.33011919 345.92976321 306.33529615 343.52274501 306.34173584 341.11553955 C306.34933883 327.57137796 305.83100711 314.19679632 303.51751709 300.82061768 C303.25696533 299.30177979 303.25696533 299.30177979 302.9911499 297.7522583 C294.37201682 249.20428168 275.45183447 204.21842769 245.20501709 165.19561768 C244.56048584 164.35643799 243.91595459 163.5172583 243.25189209 162.65264893 C238.70793286 156.84340023 233.82490761 151.41578467 228.80657959 146.01983643 C226.65243349 143.68132647 224.57210272 141.30827925 222.51751709 138.88311768 C219.74381419 135.69172775 216.7680273 132.94928147 213.54095459 130.22296143 C211.23778366 128.22405555 209.03015623 126.14179464 206.82244873 124.03863525 C164.29685999 83.79819513 106.70445894 59.97180601 49.2098999 52.58624268 C46.64860222 52.2532823 44.0955529 51.88808449 41.54095459 51.50811768 C16.56377309 48.05231619 -9.98330764 49.25968013 -34.79498291 53.19561768 Z " fill="#CD9E7F" transform="translate(1068.7949829101563,734.8043823242188)"/>
<path d="M0 0 C1.14146484 0.5146582 2.28292969 1.02931641 3.45898438 1.55957031 C19.35488844 8.73062204 34.87073823 16.32259692 50 25 C51.36415039 25.78093018 51.36415039 25.78093018 52.75585938 26.57763672 C85.41649067 45.37064167 116.02642106 66.93027081 145 91 C145.50354004 91.41717285 146.00708008 91.8343457 146.52587891 92.26416016 C153.85384655 98.34788352 160.94929603 104.63281658 167.91015625 111.1328125 C171.53530821 114.51447565 175.24959401 117.79366385 178.9765625 121.0625 C180.91437973 122.91801611 182.46290681 124.80694984 184 127 C180.37958555 125.45673578 177.96595232 123.26097295 175.125 120.5625 C170.45343948 116.21005032 165.58595495 112.21574167 160.53442383 108.31420898 C157.38705878 105.88036518 154.27530563 103.41848496 151.21875 100.87109375 C141.95618428 93.16026155 132.33222215 86.25078774 122.31005859 79.56176758 C119.8674197 77.91036608 117.45607468 76.21930071 115.046875 74.51953125 C93.41990885 59.33437399 70.15361304 45.44507616 46.27050781 34.09033203 C43.52021893 32.76960191 40.78831877 31.41346095 38.0546875 30.05859375 C15.26773193 18.83187444 -7.95651001 9.08433685 -32.0625 1.03515625 C-36.13557 -0.32633242 -40.11138877 -1.83507041 -44.09375 -3.44140625 C-52.37462361 -6.66071909 -60.90548651 -8.80178932 -69.5 -11 C-71.21320726 -11.44275342 -72.92634145 -11.8857897 -74.6394043 -12.32910156 C-78.72968568 -13.38474297 -82.82264607 -14.42949052 -86.91693115 -15.46948242 C-88.70293733 -15.92434385 -90.4875944 -16.38449687 -92.27197266 -16.84570312 C-108.98812891 -21.16071308 -125.98276682 -24.15036588 -143 -27 C-144.19061035 -27.20012695 -145.3812207 -27.40025391 -146.60791016 -27.60644531 C-196.18928278 -35.7103422 -247.01056336 -35.66654097 -297 -32 C-298.24749023 -31.90879883 -299.49498047 -31.81759766 -300.78027344 -31.72363281 C-330.86739014 -29.36855776 -361.1615282 -24.31041424 -390.35595703 -16.67333984 C-392.94643625 -16.0136407 -395.54296797 -15.41205849 -398.15234375 -14.83203125 C-437.01722564 -6.16850216 -474.1046549 8.5629906 -510.17315674 25.16210938 C-512.67113065 26.30781736 -515.17760353 27.43445538 -517.68359375 28.5625 C-529.27616908 33.84352283 -540.2652841 40.10699344 -551.29736328 46.46142578 C-553.7335871 47.84833477 -556.18401761 49.19865701 -558.65234375 50.52734375 C-589.7233518 67.26161231 -619.50157104 88.47842324 -646.171875 111.5703125 C-648.8611935 113.88074911 -651.60432497 116.10082081 -654.375 118.3125 C-660.33038522 123.15505411 -665.87539409 128.40563052 -671.453125 133.671875 C-674.19210209 136.25532658 -676.97991616 138.76904726 -679.8125 141.25 C-684.77241734 145.6838655 -689.47675225 150.36742783 -694.1875 155.0625 C-694.94844971 155.81885742 -695.70939941 156.57521484 -696.4934082 157.35449219 C-700.61835917 161.49069752 -704.57344766 165.71358003 -708.38500977 170.13989258 C-710.80941111 172.93226051 -713.34568589 175.61555767 -715.875 178.3125 C-720.30143039 183.07609048 -724.53524673 187.94068151 -728.60546875 193.015625 C-730.38240685 195.23027542 -732.17495802 197.42492381 -733.98828125 199.609375 C-741.5276084 208.72387891 -748.58262025 218.10555139 -755.41357422 227.76074219 C-756.96683075 229.95318123 -758.53090595 232.13750266 -760.09765625 234.3203125 C-778.44908863 259.9752264 -795.18556367 287.22230493 -808.86572266 315.66210938 C-810.19636115 318.40472544 -811.55782521 321.1312735 -812.91796875 323.859375 C-838.78667556 376.14735398 -855.50862934 431.10361576 -866.48144531 488.30957031 C-866.92131884 490.59177667 -867.37575973 492.87027346 -867.8359375 495.1484375 C-870.80191768 510.61618362 -872.38552831 526.34328233 -874 542 C-874.12294434 543.1859375 -874.24588867 544.371875 -874.37255859 545.59375 C-878.26348545 585.42195198 -877.15034659 626.24235135 -873 666 C-872.92644287 666.72227783 -872.85288574 667.44455566 -872.77709961 668.1887207 C-871.60449635 679.64010078 -870.05884236 691.00751113 -868.25 702.375 C-868.12094269 703.19127869 -867.99188538 704.00755737 -867.85891724 704.84857178 C-865.44601167 720.02682925 -862.50612167 735.0325883 -859 750 C-858.7848877 750.92925293 -858.56977539 751.85850586 -858.34814453 752.81591797 C-855.68347829 764.233836 -852.43401846 775.39295408 -848.7890625 786.53393555 C-847.88749139 789.3516242 -847.0373713 792.18309501 -846.18359375 795.015625 C-843.72274929 803.02920373 -840.9610532 810.92540483 -838.125 818.8125 C-837.84643158 819.5878006 -837.56786316 820.3631012 -837.28085327 821.16189575 C-831.27674775 837.78954661 -824.35496442 853.93174234 -817 870 C-816.5452832 871.00579102 -816.09056641 872.01158203 -815.62207031 873.04785156 C-810.08811162 885.25999253 -803.82384897 896.94159358 -797.12109375 908.55078125 C-795.26251279 911.77057643 -793.44645421 914.99910221 -791.72265625 918.29296875 C-783.1207542 934.6401032 -772.39265937 949.75844913 -762 965 C-761.34580078 965.9605127 -760.69160156 966.92102539 -760.01757812 967.91064453 C-753.51699965 977.40787696 -746.5950296 986.48139556 -739.31054688 995.38964844 C-737.51597495 997.59475209 -735.76000662 999.82976432 -734 1002.0625 C-730.64458826 1006.25853068 -727.17957556 1010.35522185 -723.6875 1014.4375 C-723.17123047 1015.04150635 -722.65496094 1015.6455127 -722.12304688 1016.26782227 C-719.82784773 1018.93663218 -717.51009245 1021.53305048 -715 1024 C-715.33 1024.66 -715.66 1025.32 -716 1026 C-721.23937328 1020.85550471 -726.3897016 1015.69848263 -731.1640625 1010.1171875 C-733.3520617 1007.59400545 -735.61293113 1005.14445481 -737.875 1002.6875 C-741.89380593 998.27646827 -745.72865324 993.76264642 -749.47265625 989.1171875 C-751.35047916 986.78762058 -753.26024117 984.48742603 -755.18359375 982.1953125 C-768.26767939 966.56936678 -779.99406733 950.18399979 -791.3125 933.25 C-791.77672363 932.55688721 -792.24094727 931.86377441 -792.71923828 931.1496582 C-799.10443972 921.59899825 -805.20024135 911.91715826 -811 902 C-811.57403564 901.0198291 -812.14807129 900.0396582 -812.73950195 899.02978516 C-835.30865965 860.08759828 -853.06257389 819.50074376 -867.37231445 776.86688232 C-867.95410645 775.13649805 -868.54221421 773.40824075 -869.13085938 771.68017578 C-883.76306563 728.35319731 -891.57405351 682.42663895 -896 637 C-896.11859375 635.79230957 -896.2371875 634.58461914 -896.359375 633.34033203 C-899.6093807 598.43662496 -898.87978519 562.91292224 -896.15496826 527.99121094 C-896.00169667 526.02180084 -895.85457344 524.05191538 -895.70751953 522.08203125 C-893.12489734 488.5291466 -886.82553321 455.6881711 -879 423 C-878.7313916 421.86546387 -878.4627832 420.73092773 -878.18603516 419.56201172 C-867.25084587 374.11460653 -848.98414461 330.62805295 -828 289 C-827.48308594 287.97036133 -826.96617187 286.94072266 -826.43359375 285.87988281 C-804.98299228 243.37320728 -777.41797909 203.77625088 -746.43115234 167.67382812 C-744.93136904 165.91973152 -743.44347147 164.15603828 -741.95703125 162.390625 C-736.92810771 156.438379 -731.87607906 150.6442431 -726.23046875 145.2578125 C-724.32503747 143.32902217 -722.56436074 141.36147727 -720.796875 139.30859375 C-716.75130465 134.64740487 -712.43628492 130.28913918 -708.0625 125.9375 C-707.30259766 125.17373047 -706.54269531 124.40996094 -705.75976562 123.62304688 C-701.58553199 119.45594259 -697.32549058 115.45851052 -692.85571289 111.6105957 C-690.06447279 109.1880446 -687.38293334 106.65289892 -684.6875 104.125 C-678.98515128 98.82625534 -673.07285619 93.87101964 -667 89 C-665.80726658 88.0172335 -664.61594599 87.03275069 -663.42578125 86.046875 C-634.57435744 62.22134804 -603.23828491 41.43994572 -570.48925781 23.38720703 C-568.30531076 22.17014277 -566.14438752 20.92439855 -563.9921875 19.65234375 C-551.15946895 12.10656998 -537.54771745 6.12642592 -524 0 C-522.91944336 -0.49322754 -521.83888672 -0.98645508 -520.72558594 -1.49462891 C-499.35698064 -11.2351238 -477.53054811 -19.55403083 -455.05297852 -26.36181641 C-452.8741225 -27.03912995 -450.71275702 -27.75895696 -448.55078125 -28.48828125 C-422.47683069 -37.23457106 -395.40324379 -42.93714918 -368.3125 -47.44580078 C-365.13242073 -47.97784529 -361.9568525 -48.53179019 -358.78125 -49.08984375 C-265.54543696 -65.14774448 -165.64756107 -56.66102221 0 0 Z " fill="#B39E82" transform="translate(1321,479)"/>
<path d="M0 0 C2.95372995 0.01087403 5.90741376 0.0104665 8.86116028 0.00986195 C11.74390937 0.0101357 14.62662952 0.01564761 17.5093689 0.02286339 C19.51818495 0.02750602 21.52700695 0.02930867 23.53582764 0.03102112 C48.91069206 0.161661 74.00656127 5.81111238 98.20501709 13.19561768 C100.03806396 13.72928955 100.03806396 13.72928955 101.90814209 14.27374268 C129.21813905 22.33971052 156.19215703 34.91028133 180.20501709 50.19561768 C181.69968506 51.13534424 181.69968506 51.13534424 183.22454834 52.09405518 C198.44689136 61.96463054 212.72939521 73.06670563 226.20501709 85.19561768 C227.78784082 86.61285369 229.37109837 88.02960554 230.95501709 89.44561768 C231.59922607 90.02343994 232.24343506 90.60126221 232.90716553 91.19659424 C235.27810868 93.25920394 237.71935647 95.20407654 240.18157959 97.15655518 C246.21585884 102.08200548 251.73868355 107.42510615 257.22161865 112.95147705 C258.82849016 114.56908055 260.44580203 116.17568681 262.06439209 117.78155518 C268.55653324 124.26515168 274.50473872 130.99388773 280.20501709 138.19561768 C281.18128153 139.3696993 282.16116846 140.54078907 283.14642334 141.70733643 C314.0239395 178.83676812 336.53323631 224.51624403 347.55804443 271.48077393 C348.183232 274.10420252 348.85425405 276.71167222 349.53704834 279.32061768 C359.76363942 319.4905148 360.32804799 363.54313162 353.95501709 404.38311768 C353.84552734 405.09562683 353.7360376 405.80813599 353.62322998 406.54223633 C350.93624553 423.92954782 347.07484788 440.60861195 341.20501709 457.19561768 C340.72350604 458.64015083 340.24449807 460.08551989 339.76751709 461.53155518 C327.10850623 499.58065043 307.83353954 534.47017672 282.54534912 565.54669189 C281.27448033 567.11016144 280.01858933 568.68577094 278.76361084 570.26202393 C271.76709495 578.85357966 263.95003954 586.66282198 256.14251709 594.50811768 C255.31057327 595.34796204 255.31057327 595.34796204 254.46182251 596.20477295 C247.38038228 603.33809904 240.13745856 609.9974567 232.20501709 616.19561768 C231.47597168 616.77335937 230.74692627 617.35110107 229.99578857 617.9463501 C186.37675477 652.31647088 135.74577305 675.60769559 81.20501709 686.19561768 C80.37792236 686.36964111 79.55082764 686.54366455 78.69866943 686.72296143 C59.86431728 690.499346 40.77773284 690.5441654 21.65155029 690.5112915 C18.73049553 690.50665297 15.80985642 690.51362405 12.88885498 690.53179932 C-3.88268713 690.63499667 -20.26182823 690.37480354 -36.79498291 687.19561768 C-37.53370636 687.05914825 -38.27242981 686.92267883 -39.03353882 686.78207397 C-43.23653291 686.00210148 -47.42132298 685.15677318 -51.59942627 684.25323486 C-53.62533986 683.81677056 -55.65415671 683.39631184 -57.68365479 682.97686768 C-111.14969617 671.7096311 -163.22407585 644.32551509 -203.38873291 607.35577393 C-205.85300374 605.1435308 -208.39494746 603.07434084 -210.98248291 601.00811768 C-216.3736412 596.65077525 -221.41367869 591.96969388 -226.45123291 587.21075439 C-229.5671359 584.26804581 -232.69210086 581.38195768 -235.98248291 578.63311768 C-241.74292734 573.65480255 -246.72366887 567.85694182 -251.79498291 562.19561768 C-252.322854 561.61247803 -252.8507251 561.02933838 -253.39459229 560.42852783 C-262.31059555 550.55413567 -270.26135624 540.15734583 -277.79498291 529.19561768 C-278.26114014 528.51837646 -278.72729736 527.84113525 -279.20758057 527.14337158 C-313.93180547 476.20034714 -336.57473445 413.48061832 -337.03326416 351.39874268 C-337.04305801 350.29925797 -337.05285187 349.19977325 -337.0629425 348.06697083 C-337.22983576 324.47790212 -337.26208947 301.42865136 -332.79498291 278.19561768 C-332.58067627 277.05318604 -332.36636963 275.91075439 -332.14556885 274.73370361 C-326.10499037 243.37017608 -315.99395262 212.38629735 -300.86236572 184.18585205 C-300.10407728 182.77195283 -299.35429436 181.35347747 -298.6104126 179.9319458 C-289.24258561 162.03801756 -278.31703574 145.05530651 -265.79498291 129.19561768 C-265.08213135 128.2906958 -264.36927979 127.38577393 -263.63482666 126.45343018 C-258.41011849 119.94788526 -252.84615515 113.79251512 -247.16802979 107.68634033 C-244.95089233 105.27918505 -242.78580394 102.82537637 -240.60748291 100.38311768 C-237.25896766 96.69870121 -233.84755434 93.32357924 -230.03717041 90.12530518 C-227.71492434 88.12671709 -225.49320432 86.04625823 -223.26593018 83.94342041 C-216.45186824 77.53260489 -209.35449032 71.70886578 -201.79498291 66.19561768 C-201.13981689 65.71592529 -200.48465088 65.23623291 -199.80963135 64.74200439 C-190.69499333 58.10133955 -181.42863751 51.88320987 -171.64996338 46.26348877 C-169.79667736 45.19659313 -167.95403714 44.11279089 -166.11138916 43.02764893 C-135.27457351 25.06511402 -102.07348313 13.1548669 -67.2588501 5.72296143 C-65.08303984 5.25727076 -62.91148999 4.77599584 -60.74029541 4.28936768 C-40.5924275 -0.04350714 -20.49436792 -0.0951742 0 0 Z M-77.79498291 34.19561768 C-78.74550537 34.48275635 -79.69602783 34.76989502 -80.675354 35.06573486 C-122.2797813 47.8320627 -160.54170541 69.19532619 -193.79498291 97.19561768 C-195.30511963 98.42731689 -195.30511963 98.42731689 -196.84576416 99.68389893 C-204.48481277 105.98577116 -211.58604723 112.77736811 -218.60748291 119.75811768 C-219.47872803 120.62017822 -220.34997314 121.48223877 -221.24761963 122.37042236 C-226.41400782 127.56137965 -231.18987144 132.93512064 -235.76324463 138.65582275 C-237.83656234 141.24759446 -239.96514041 143.78577319 -242.10748291 146.32061768 C-290.22983233 205.36849183 -315.28729472 281.35797656 -313.79498291 357.19561768 C-313.78096436 358.20463135 -313.7669458 359.21364502 -313.75250244 360.25323486 C-313.1705996 397.45902279 -307.41706224 438.20779834 -291.67047119 472.27325439 C-290.56533747 474.69986424 -289.68213233 477.18202766 -288.79498291 479.69561768 C-269.86568667 529.31949582 -234.80223413 577.51687328 -192.79498291 610.19561768 C-191.60930551 611.15659417 -190.42585403 612.12032115 -189.24420166 613.08624268 C-147.68960857 646.96839314 -99.07027761 668.8738081 -46.79498291 680.19561768 C-46.08470947 680.35755615 -45.37443604 680.51949463 -44.64263916 680.68634033 C33.89430184 698.57397183 123.94113376 680.73775917 191.72894287 638.62774658 C210.94695912 626.50747518 228.98602328 613.14852664 245.59173584 597.62139893 C247.85537905 595.52016958 250.16142602 593.5038124 252.51751709 591.50811768 C255.83646376 588.63489731 258.66373549 585.49872778 261.49798584 582.15264893 C263.11762516 580.29580843 264.80625 578.59164276 266.58001709 576.88311768 C271.19310543 572.32105908 275.19365264 567.28448732 279.20501709 562.19561768 C279.9446167 561.26265869 279.9446167 561.26265869 280.69915771 560.31085205 C288.84915163 549.99020624 296.30855315 539.39164866 303.20501709 528.19561768 C303.623479 527.52095459 304.04194092 526.8462915 304.4730835 526.15118408 C336.01002859 475.00054781 352.41280919 416.23768899 352.45501709 356.25811768 C352.45569183 355.38733582 352.45636658 354.51655396 352.45706177 353.61938477 C352.37633169 287.40714269 333.55758965 220.64867614 295.20501709 166.19561768 C294.46122803 165.11667236 293.71743896 164.03772705 292.95111084 162.92608643 C275.4236492 137.72053951 253.74822547 112.71365562 229.20501709 94.19561768 C227.9004234 93.17632893 226.59715056 92.15534843 225.29486084 91.13311768 C210.96404858 79.94601791 196.03622358 70.12641239 180.20501709 61.19561768 C179.52213623 60.81018799 178.83925537 60.4247583 178.13568115 60.02764893 C100.93101712 16.87845186 6.43735893 8.65985567 -77.79498291 34.19561768 Z " fill="#A77C60" transform="translate(1068.7949829101563,734.8043823242188)"/>
<path d="M0 0 C5.04714221 3.01505312 8.86966463 6.34727515 10.7734375 12.05859375 C11.31192786 18.41278002 10.41316548 22.75801902 6.7734375 28.05859375 C1.89143837 32.69649292 -2.2506272 34.53939396 -8.9140625 34.375 C-13.86920447 33.69701605 -17.15891706 31.21280504 -20.5390625 27.55859375 C-24.11517909 22.26064325 -24.91369007 18.40898239 -24.2265625 12.05859375 C-22.4125965 6.61669576 -18.84393612 3.28026125 -14.2265625 0.05859375 C-9.45849144 -1.53076327 -4.72202224 -1.99650414 0 0 Z " fill="#59341A" transform="translate(1232.2265625,1311.94140625)"/>
<path d="M0 0 C4.9710149 2.53240382 8.49430567 5.98861134 11 11 C11.37364646 16.60469691 11.20860998 20.18708503 8 25 C4.07053255 28.97241245 0.8347094 30.84961398 -4.8125 31.3125 C-9.20360994 31.24804334 -11.61154946 29.84937886 -15 27 C-19.15625516 22.28208874 -20.36072814 19.50576653 -20.28125 13.31640625 C-19.6982585 8.51482352 -16.86738294 5.76412307 -13.375 2.6875 C-8.96198422 -0.44806384 -5.32248886 -0.64623811 0 0 Z " fill="#59341A" transform="translate(1345,1190)"/>
<path d="M0 0 C6.82154345 5.59452496 12.97068021 11.83410144 19.19297791 18.07272339 C20.43212134 19.3114304 21.67148466 20.54991749 22.911048 21.78820431 C26.30655121 25.18147659 29.698937 28.57785046 33.09081328 31.97474766 C36.7528519 35.64111071 40.41778618 39.30457722 44.08236694 42.96839905 C50.42777777 49.31328591 56.77135726 55.65999896 63.11369133 62.00796127 C72.28360928 71.18601139 81.45629216 80.36129409 90.62964899 89.53590693 C105.51327596 104.42172171 120.39466908 119.30976761 135.2746582 134.19921875 C149.72791264 148.66165428 164.18221853 163.1230376 178.63793945 177.58300781 C179.52921207 178.47454315 180.42048468 179.36607849 181.33876555 180.28463005 C185.81009121 184.75726075 190.28143754 189.22987078 194.75279415 193.70247054 C231.83840221 230.79844281 268.9203854 267.89803698 306 305 C303 305 303 305 300.77778006 303.14807421 C299.90263203 302.27070288 299.02748401 301.39333155 298.12581635 300.48937321 C297.63531361 300.00173281 297.14481087 299.51409241 296.63944441 299.01167503 C294.98169388 297.35990594 293.33495223 295.69757029 291.68786621 294.03517151 C290.49599149 292.84317294 289.303455 291.65183577 288.11031103 290.46110767 C284.82105571 287.1746915 281.54126267 283.87896887 278.26285625 280.58173501 C274.73041971 277.03228807 271.18934293 273.49148054 267.64924622 269.94967651 C261.51234711 263.80751955 255.38086618 257.65999625 249.25288391 251.50894356 C240.39049587 242.61338121 231.51893434 233.72701369 222.6448831 224.84308802 C208.24591022 210.42777749 193.85291854 196.0065112 179.46435547 181.58081055 C178.60255124 180.71678519 177.740747 179.85275983 176.85282749 178.96255188 C173.36070732 175.46141572 169.86859712 171.96026962 166.37650111 168.45910937 C156.76384996 158.82162757 147.15001473 149.1853274 137.53564453 139.54956055 C136.67488719 138.68688423 135.81412985 137.82420791 134.92728895 136.93538988 C120.59191322 122.56834087 106.25256836 108.2052586 91.91077852 93.84461254 C83.05665738 84.97839703 74.20642086 76.1083358 65.36110651 67.23333406 C59.30356232 61.15584304 53.24259806 55.08177771 47.17889488 49.01043171 C43.67624825 45.50309396 40.1753258 41.99407619 36.67873573 38.48069954 C33.48171386 35.26836975 30.28018752 32.06060388 27.07492906 28.85649311 C25.91237576 27.6926962 24.75154377 26.52717693 23.59255761 25.35982759 C22.02431938 23.78074488 20.45011232 22.20786997 18.87418365 20.63646793 C17.99903563 19.75893425 17.12388761 18.88140057 16.22221994 17.97727495 C14.07656972 15.80642666 14.07656972 15.80642666 11 15 C9.41284209 13.28835912 7.90010614 11.50672181 6.4375 9.6875 C5.65246094 8.72199219 4.86742187 7.75648438 4.05859375 6.76171875 C2.38179102 4.51219402 1.19532192 2.50686034 0 0 Z " fill="#C9AF8E" transform="translate(1410,789)"/>
<path d="M0 0 C3.80370599 3.18449804 4.51765543 4.72139886 5.0625 9.625 C4.61581385 13.94296607 3.4559289 15.94326548 0.6875 19.25 C-2.72707004 21.84036348 -6.14532171 21.68108741 -10.3125 21.25 C-13.39443978 19.6218054 -15.57670667 18.21990938 -17.6875 15.4375 C-19.04787221 10.67619727 -18.88128187 7.32662283 -16.5625 2.9375 C-11.92623943 -2.60025568 -6.52345032 -3.44635111 0 0 Z " fill="#5B361B" transform="translate(1184.3125,1326.75)"/>
<path d="M0 0 C3.80370599 3.18449804 4.51765543 4.72139886 5.0625 9.625 C4.61581385 13.94296607 3.4559289 15.94326548 0.6875 19.25 C-2.72707004 21.84036348 -6.14532171 21.68108741 -10.3125 21.25 C-13.39443978 19.6218054 -15.57670667 18.21990938 -17.6875 15.4375 C-19.04787221 10.67619727 -18.88128187 7.32662283 -16.5625 2.9375 C-11.92623943 -2.60025568 -6.52345032 -3.44635111 0 0 Z " fill="#5B361B" transform="translate(1303.3125,1232.75)"/>
<path d="M0 0 C2.96045738 2.59040021 3.85478339 4.12870035 4.5 8 C3.88466097 11.69203416 2.58383614 13.34016868 0 16 C-2.85324437 17.42662219 -4.83454549 17.31033868 -8 17 C-10.69990662 15.20006226 -12.5418865 13.916227 -14 11 C-14.43023798 7.12785818 -14.31669086 5.47503629 -12.125 2.1875 C-8.39269285 -1.65458089 -4.98618687 -1.42884802 0 0 Z " fill="#5B351B" transform="translate(1351,1110)"/>
<path d="M0 0 C3.4375 0.8125 3.4375 0.8125 5.4375 3.8125 C5.25 7.375 5.25 7.375 4.4375 10.8125 C1.4375 12.8125 1.4375 12.8125 -2.125 12.625 C-5.5625 11.8125 -5.5625 11.8125 -7.5625 8.8125 C-7.375 5.25 -7.375 5.25 -6.5625 1.8125 C-3.5625 -0.1875 -3.5625 -0.1875 0 0 Z " fill="#5D371D" transform="translate(1229.5625,1284.1875)"/>
<path d="M0 0 C3.4375 0.8125 3.4375 0.8125 5.4375 3.8125 C5.25 7.375 5.25 7.375 4.4375 10.8125 C1.4375 12.8125 1.4375 12.8125 -2.125 12.625 C-5.5625 11.8125 -5.5625 11.8125 -7.5625 8.8125 C-7.375 5.25 -7.375 5.25 -6.5625 1.8125 C-3.5625 -0.1875 -3.5625 -0.1875 0 0 Z " fill="#5D371D" transform="translate(1301.5625,1261.1875)"/>
<path d="M0 0 C3.4375 0.8125 3.4375 0.8125 5.4375 3.8125 C5.25 7.375 5.25 7.375 4.4375 10.8125 C1.4375 12.8125 1.4375 12.8125 -2.125 12.625 C-5.5625 11.8125 -5.5625 11.8125 -7.5625 8.8125 C-7.375 5.25 -7.375 5.25 -6.5625 1.8125 C-3.5625 -0.1875 -3.5625 -0.1875 0 0 Z " fill="#5D371D" transform="translate(1365.5625,1184.1875)"/>
<path d="M0 0 C3.4375 0.8125 3.4375 0.8125 5.4375 3.8125 C5.25 7.375 5.25 7.375 4.4375 10.8125 C1.4375 12.8125 1.4375 12.8125 -2.125 12.625 C-5.5625 11.8125 -5.5625 11.8125 -7.5625 8.8125 C-7.375 5.25 -7.375 5.25 -6.5625 1.8125 C-3.5625 -0.1875 -3.5625 -0.1875 0 0 Z " fill="#5D371D" transform="translate(1305.5625,1162.1875)"/>
<path d="M0 0 C0.66 0.66 1.32 1.32 2 2 C1.625 5.125 1.625 5.125 1 8 C-4.41139241 9.32278481 -4.41139241 9.32278481 -6.9375 7.9375 C-8.52666796 5.03960549 -7.87523205 3.09697496 -7 0 C-4.29393021 -1.35303489 -2.8671629 -0.7884698 0 0 Z " fill="#5D371D" transform="translate(1248,1286)"/>
<path d="M0 0 C2.625 0.375 2.625 0.375 5 1 C5.625 3.375 5.625 3.375 6 6 C5.34 6.66 4.68 7.32 4 8 C1.375 7.625 1.375 7.625 -1 7 C-1.625 4.625 -1.625 4.625 -2 2 C-1.34 1.34 -0.68 0.68 0 0 Z " fill="#5F3A1F" transform="translate(1348,1177)"/>
<path d="M0 0 C2.125 0.375 2.125 0.375 4 1 C4.625 2.875 4.625 2.875 5 5 C4.34 5.66 3.68 6.32 3 7 C0.875 6.625 0.875 6.625 -1 6 C-1.625 4.125 -1.625 4.125 -2 2 C-1.34 1.34 -0.68 0.68 0 0 Z " fill="#5D381E" transform="translate(1183,1317)"/>
<path d="M0 0 C2.125 0.375 2.125 0.375 4 1 C4.625 2.875 4.625 2.875 5 5 C4.34 5.66 3.68 6.32 3 7 C0.875 6.625 0.875 6.625 -1 6 C-1.625 4.125 -1.625 4.125 -2 2 C-1.34 1.34 -0.68 0.68 0 0 Z " fill="#5D381E" transform="translate(1314,1251)"/>
<path d="M0 0 C2.125 0.375 2.125 0.375 4 1 C4.625 2.875 4.625 2.875 5 5 C4.34 5.66 3.68 6.32 3 7 C0.875 6.625 0.875 6.625 -1 6 C-1.625 4.125 -1.625 4.125 -2 2 C-1.34 1.34 -0.68 0.68 0 0 Z " fill="#5D381E" transform="translate(1298,1218)"/>
<path d="M0 0 C2.125 0.375 2.125 0.375 4 1 C4.625 2.875 4.625 2.875 5 5 C4.34 5.66 3.68 6.32 3 7 C0.875 6.625 0.875 6.625 -1 6 C-1.625 4.125 -1.625 4.125 -2 2 C-1.34 1.34 -0.68 0.68 0 0 Z " fill="#5D381E" transform="translate(1312,1154)"/>
<path d="M0 0 C2.125 0.375 2.125 0.375 4 1 C4.625 2.875 4.625 2.875 5 5 C4.34 5.66 3.68 6.32 3 7 C0.875 6.625 0.875 6.625 -1 6 C-1.625 4.125 -1.625 4.125 -2 2 C-1.34 1.34 -0.68 0.68 0 0 Z " fill="#5D381E" transform="translate(1336,1130)"/>
<path d="M0 0 C5.59363406 4.06133537 10.85963514 8.3791401 16 13 C15.34 13.66 14.68 14.32 14 15 C13.57589844 14.56429688 13.15179687 14.12859375 12.71484375 13.6796875 C9.06505529 9.97374845 5.34358974 6.51738517 1.28515625 3.26171875 C0.86105469 2.84535156 0.43695312 2.42898438 0 2 C0 1.34 0 0.68 0 0 Z " fill="#C9B092" transform="translate(785,1406)"/>
<path d="M0 0 C1.98 0.495 1.98 0.495 4 1 C3.67 2.32 3.34 3.64 3 5 C1.68 4.67 0.36 4.34 -1 4 C-0.67 2.68 -0.34 1.36 0 0 Z " fill="#643E24" transform="translate(1294,1174)"/>
<path d="M0 0 C1.98 0.495 1.98 0.495 4 1 C3.67 2.32 3.34 3.64 3 5 C1.68 4.67 0.36 4.34 -1 4 C-0.67 2.68 -0.34 1.36 0 0 Z " fill="#643E24" transform="translate(1292,1167)"/>
<path d="M0 0 C1.98 0.495 1.98 0.495 4 1 C3.67 2.32 3.34 3.64 3 5 C1.68 4.67 0.36 4.34 -1 4 C-0.67 2.68 -0.34 1.36 0 0 Z " fill="#643E24" transform="translate(1347,1132)"/>
<path d="M0 0 C1.12894876 0.93274109 2.25300876 1.87140122 3.375 2.8125 C4.00148438 3.33457031 4.62796875 3.85664062 5.2734375 4.39453125 C7 6 7 6 9 9 C6 9 6 9 4.39453125 7.5390625 C3.61142578 6.59160156 3.61142578 6.59160156 2.8125 5.625 C2.28269531 4.99851562 1.75289062 4.37203125 1.20703125 3.7265625 C0 2 0 2 0 0 Z " fill="#CEB697" transform="translate(1410,789)"/>
</svg>
